<?xml version="1.0" encoding="UTF-8" standalone="no" ?>
<!-- Created with Inkscape (http://www.inkscape.org/) -->

<svg xmlns:dc="http://purl.org/dc/elements/1.1/"
	 xmlns:cc="http://creativecommons.org/ns#"
	 xmlns:rdf="http://www.w3.org/1999/02/22-rdf-syntax-ns#"
	 xmlns:svg="http://www.w3.org/2000/svg"
	 xmlns="http://www.w3.org/2000/svg"
	 xmlns:xlink="http://www.w3.org/1999/xlink"
	 xmlns:sodipodi="http://sodipodi.sourceforge.net/DTD/sodipodi-0.dtd"
	 xmlns:inkscape="http://www.inkscape.org/namespaces/inkscape"
	 width="128"
	 height="128"
	 viewBox="0 0 128 128.00001"
	 version="1.1"
	 id="svg1470"
	 sodipodi:docname="AppIcon_v5_128.svg"
	 inkscape:version="0.92.4 (5da689c313, 2019-01-14)"
	 inkscape:export-filename="W:\VS 2019 Projects\RandomPasswordGenerator\RandomPasswordGenerator\Content\Icons\128\AppIcon_v5_128.png"
	 inkscape:export-xdpi="96"
	 inkscape:export-ydpi="96">
	<defs id="defs1464">
		<linearGradient inkscape:collect="always"
						xlink:href="#linearGradient1420"
						id="linearGradient2087"
						gradientUnits="userSpaceOnUse"
						gradientTransform="matrix(0.30941959,0,0,0.30752972,15.551491,726.78576)"
						x1="-656.27441"
						y1="996.85919"
						x2="-467.88651"
						y2="996.85919" />
		<linearGradient inkscape:collect="always"
						id="linearGradient1420">
			<stop style="stop-color:#000000;stop-opacity:1"
				  offset="0"
				  id="stop1416" />
			<stop id="stop1428"
				  offset="0.48921227"
				  style="stop-color:#000000;stop-opacity:1" />
			<stop style="stop-color:#787878;stop-opacity:1"
				  offset="0.50547951"
				  id="stop1430" />
			<stop style="stop-color:#787878;stop-opacity:1"
				  offset="1"
				  id="stop1418" />
		</linearGradient>
	</defs>
	<sodipodi:namedview id="base"
						pagecolor="#ffffff"
						bordercolor="#666666"
						borderopacity="1.0"
						inkscape:pageopacity="0.0"
						inkscape:pageshadow="2"
						inkscape:zoom="3.0383533"
						inkscape:cx="163.4432"
						inkscape:cy="53.757438"
						inkscape:document-units="px"
						inkscape:current-layer="layer1"
						showgrid="false"
						units="px"
						showborder="true"
						inkscape:snap-smooth-nodes="true"
						inkscape:object-nodes="true"
						inkscape:snap-intersection-paths="false"
						inkscape:window-width="1920"
						inkscape:window-height="1057"
						inkscape:window-x="-8"
						inkscape:window-y="-8"
						inkscape:window-maximized="1"
						showguides="true"
						inkscape:guide-bbox="true"
						inkscape:snap-nodes="true"
						fit-margin-top="0"
						fit-margin-left="0"
						fit-margin-right="0"
						fit-margin-bottom="0"
						inkscape:snap-center="true"
						inkscape:snap-object-midpoints="true"
						inkscape:showpageshadow="false" />
	<metadata id="metadata1467">
		<rdf:RDF>
			<cc:Work rdf:about="">
				<dc:format>image/svg+xml</dc:format>
				<dc:type rdf:resource="http://purl.org/dc/dcmitype/StillImage" />
				<dc:title></dc:title>
			</cc:Work>
		</rdf:RDF>
	</metadata>
	<g inkscape:label="Layer 1"
	   inkscape:groupmode="layer"
	   id="layer1"
	   transform="translate(257.56218,-935.58882)">
		<g id="g3823"
		   transform="matrix(1.0000115,0,0,1,0.00295287,0)"
		   style="stroke-width:0.99999428">
			<g id="g2061"
			   transform="matrix(0.90315393,0,0,0.94488187,105.49053,918.81441)"
			   style="stroke-width:0.56077492">
				<g id="g2053"
				   style="stroke-width:0.56077492">
					<path inkscape:connector-curvature="0"
						  style="opacity:1;fill:#5a8ad1;fill-opacity:1;stroke:none;stroke-width:0.14888287;stroke-miterlimit:4;stroke-dasharray:none;stroke-opacity:1"
						  d="M -331.21234,17.752921 V 153.21959 c 43.35735,-38.45246 67.60862,-56.439501 67.73334,-135.466669 0,0 -22.43988,5.309755 -33.86668,5.309754 -11.42677,0 -33.86666,-5.309754 -33.86666,-5.309754 z"
						  id="path2049" />
					<path inkscape:connector-curvature="0"
						  style="opacity:1;fill:#3771c8;fill-opacity:1;stroke:none;stroke-width:0.14888287;stroke-miterlimit:4;stroke-dasharray:none;stroke-opacity:1"
						  d="m -398.94568,17.752921 c 0.12473,79.027171 24.37601,97.014199 67.73334,135.466669 V 17.752921 c 0,0 -22.43987,5.309753 -33.86667,5.309754 -11.42677,0 -33.86667,-5.309754 -33.86667,-5.309754 z"
						  id="path2051" />
				</g>
				<g id="g2059"
				   style="stroke-width:0.56077492">
					<path inkscape:connector-curvature="0"
						  style="opacity:1;fill:#214478;fill-opacity:1;stroke:none;stroke-width:0.13558972;stroke-miterlimit:4;stroke-dasharray:none;stroke-opacity:1"
						  d="M -331.21234,23.800357 V 147.17215 c 39.48615,-35.01921 61.57206,-51.400626 61.68564,-123.371793 0,0 -20.43599,4.835881 -30.84255,4.835881 -10.40654,0 -30.84309,-4.835881 -30.84309,-4.835881 z"
						  id="path2055" />
					<path inkscape:connector-curvature="0"
						  style="opacity:1;fill:#002255;fill-opacity:1;stroke:none;stroke-width:0.13558972;stroke-miterlimit:4;stroke-dasharray:none;stroke-opacity:1"
						  d="m -392.89799,23.800357 c 0.11362,71.971173 22.19952,88.352583 61.68565,123.371793 V 23.800357 c 0,0 -20.43652,4.835878 -30.84306,4.835881 -10.40657,0 -30.84259,-4.835881 -30.84259,-4.835881 z"
						  id="path2057" />
				</g>
			</g>
			<g id="g3800"
			   style="stroke-width:0.99999428">
				<g id="g3786"
				   style="stroke-width:0.99999428">
					<path sodipodi:nodetypes="ccccc"
						  inkscape:connector-curvature="0"
						  id="rect2063"
						  d="m -254.67212,979.27688 h 122.0538 v 27.68942 h -122.0538 z"
						  style="opacity:1;fill:#1c2224;fill-opacity:1;stroke:#37c8ab;stroke-width:0;stroke-linecap:round;stroke-linejoin:round;stroke-miterlimit:4;stroke-dasharray:none;stroke-opacity:1" />
					<g id="g2067"
					   style="stroke-width:0.56077492"
					   transform="matrix(0.25153632,0,0,0.24999998,70.414953,806.45187)">
						<g id="g2108"
						   style="stroke-width:0.56077492">
							<path sodipodi:nodetypes="cccccccccc"
								  inkscape:connector-curvature="0"
								  id="path1254"
								  transform="matrix(1.0004568,0,0,1.0000001,-2209.3189,295.67898)"
								  d="m 907.57617,386.22852 v 129.54296 c 167.61583,0 335.23173,0 502.84763,0 V 386.22852 c -167.6159,0 -335.2318,0 -502.84763,0 z m 493.92973,9.39257 v 110.75782 c -161.6706,0 -323.3412,0 -485.01176,0 V 395.62109 c 161.67056,0 323.34116,0 485.01176,0 z"
								  style="color:#000000;font-style:normal;font-variant:normal;font-weight:normal;font-stretch:normal;font-size:medium;line-height:normal;font-family:sans-serif;font-variant-ligatures:normal;font-variant-position:normal;font-variant-caps:normal;font-variant-numeric:normal;font-variant-alternates:normal;font-feature-settings:normal;text-indent:0;text-align:start;text-decoration:none;text-decoration-line:none;text-decoration-style:solid;text-decoration-color:#000000;letter-spacing:normal;word-spacing:normal;text-transform:none;writing-mode:lr-tb;direction:ltr;text-orientation:mixed;dominant-baseline:auto;baseline-shift:baseline;text-anchor:start;white-space:normal;shape-padding:0;clip-rule:nonzero;display:inline;overflow:visible;visibility:visible;opacity:1;isolation:auto;mix-blend-mode:normal;color-interpolation:sRGB;color-interpolation-filters:linearRGB;solid-color:#000000;solid-opacity:1;vector-effect:none;fill:#dbdee3;fill-opacity:1;fill-rule:nonzero;stroke:#dbdee3;stroke-width:5.13272238;stroke-linecap:butt;stroke-linejoin:miter;stroke-miterlimit:4;stroke-dasharray:none;stroke-dashoffset:0;stroke-opacity:1;color-rendering:auto;image-rendering:auto;shape-rendering:auto;text-rendering:auto;enable-background:accumulate" />
						</g>
					</g>
				</g>
				<g id="g2083"
				   transform="matrix(0.25165122,0,0,0.25000001,-281.17328,479.00819)"
				   style="stroke-width:0.56064683">
					<path inkscape:connector-curvature="0"
						  style="opacity:1;fill:#37c8ab;fill-opacity:1;stroke:none;stroke-width:1.28544307;stroke-miterlimit:4;stroke-dasharray:none;stroke-opacity:1"
						  d="m 157.33189,2022.675 v 21.725 l -15.78048,-12.7694 -6.48294,9.9369 18.39623,14.8861 -18.39623,14.8861 6.48294,9.9368 15.78048,-12.7693 v 21.725 h 11.02869 v -21.7258 l 15.78123,12.7701 6.48226,-9.9368 -18.39628,-14.8861 18.39628,-14.8861 -6.48226,-9.9369 -15.78123,12.7702 v -21.7258 z"
						  id="path2071" />
					<path id="path2073"
						  d="m 230.34585,2022.675 v 21.725 l -15.78048,-12.7694 -6.48294,9.9369 18.39623,14.8861 -18.39623,14.8861 6.48294,9.9368 15.78048,-12.7693 v 21.725 h 11.02869 v -21.7258 l 15.78123,12.7701 6.48226,-9.9368 -18.39628,-14.8861 18.39628,-14.8861 -6.48226,-9.9369 -15.78123,12.7702 v -21.7258 z"
						  style="opacity:1;fill:#37c8ab;fill-opacity:1;stroke:none;stroke-width:1.28544307;stroke-miterlimit:4;stroke-dasharray:none;stroke-opacity:1"
						  inkscape:connector-curvature="0" />
					<path inkscape:connector-curvature="0"
						  style="opacity:1;fill:#37c8ab;fill-opacity:1;stroke:none;stroke-width:1.28544307;stroke-miterlimit:4;stroke-dasharray:none;stroke-opacity:1"
						  d="m 303.35981,2022.675 v 21.725 l -15.78048,-12.7694 -6.48294,9.9369 18.39623,14.8861 -18.39623,14.8861 6.48294,9.9368 15.78048,-12.7693 v 21.725 h 11.02869 v -21.7258 l 15.78123,12.7701 6.48226,-9.9368 -18.39628,-14.8861 18.39628,-14.8861 -6.48226,-9.9369 -15.78123,12.7702 v -21.7258 z"
						  id="path2075" />
					<path id="path2077"
						  d="m 376.37372,2022.675 v 21.725 l -15.78048,-12.7694 -6.48294,9.9369 18.39623,14.8861 -18.39623,14.8861 6.48294,9.9368 15.78048,-12.7693 v 21.725 h 11.02869 v -21.7258 l 15.78123,12.7701 6.48226,-9.9368 -18.39628,-14.8861 18.39628,-14.8861 -6.48226,-9.9369 -15.78123,12.7702 v -21.7258 z"
						  style="opacity:1;fill:#37c8ab;fill-opacity:1;stroke:none;stroke-width:1.28544307;stroke-miterlimit:4;stroke-dasharray:none;stroke-opacity:1"
						  inkscape:connector-curvature="0" />
					<path inkscape:connector-curvature="0"
						  style="opacity:1;fill:#37c8ab;fill-opacity:1;stroke:none;stroke-width:1.28544307;stroke-miterlimit:4;stroke-dasharray:none;stroke-opacity:1"
						  d="m 449.38771,2022.675 v 21.725 l -15.78048,-12.7694 -6.48294,9.9369 18.39623,14.8861 -18.39623,14.8861 6.48294,9.9368 15.78048,-12.7693 v 21.725 h 11.02869 v -21.7258 l 15.78123,12.7701 6.48226,-9.9368 -18.39628,-14.8861 18.39628,-14.8861 -6.48226,-9.9369 -15.78123,12.7702 v -21.7258 z"
						  id="path2079" />
					<path id="path2081"
						  d="m 527.26922,2022.675 v 21.725 l -15.78048,-12.7694 -6.48294,9.9369 18.39623,14.8861 -18.39623,14.8861 6.48294,9.9368 15.78048,-12.7693 v 21.725 h 11.02869 v -21.7258 l 15.78123,12.7701 6.48226,-9.9368 -18.39628,-14.8861 18.39628,-14.8861 -6.48226,-9.9369 -15.78123,12.7702 v -21.7258 z"
						  style="opacity:1;fill:#37c8ab;fill-opacity:1;stroke:none;stroke-width:1.28544307;stroke-miterlimit:4;stroke-dasharray:none;stroke-opacity:1"
						  inkscape:connector-curvature="0" />
				</g>
			</g>
			<path style="opacity:1;fill:url(#linearGradient2087);fill-opacity:1;stroke:#dbdee3;stroke-width:0.86492002;stroke-linecap:butt;stroke-linejoin:bevel;stroke-miterlimit:4;stroke-dasharray:none;stroke-opacity:1"
				  d="m -158.36723,1003.8793 c -1.14835,0.01 -2.29494,0.097 -3.43342,0.2539 l -0.47597,5.8261 c -0.56257,0.1088 -1.12108,0.2387 -1.67431,0.3912 l -2.72508,-5.1461 c -2.19515,0.702 -4.30027,1.679 -6.26928,2.9092 l 1.8415,5.5496 c -0.47745,0.3281 -0.94281,0.6744 -1.39527,1.0388 l -4.47379,-3.536 c -1.73584,1.5643 -3.28291,3.342 -4.6073,5.2943 l 3.86108,4.313 c -0.30659,0.4997 -0.59563,1.011 -0.8658,1.5332 l -5.47535,-1.3385 c -0.9753,2.1631 -1.69491,4.4415 -2.14299,6.785 l 5.21325,2.3097 c -0.0812,0.5852 -0.14165,1.1734 -0.18079,1.7632 l -5.5445,1.1022 c -0.01,0.1628 -0.0148,0.3257 -0.0247,0.4886 0.01,2.2277 0.26547,4.4469 0.75679,6.6152 l 5.60986,-0.1008 c 0.15998,0.5718 0.34026,1.1371 0.54103,1.6949 l -4.61543,3.3401 c 0.89796,2.2003 2.04919,4.279 3.42844,6.1904 l 5.10439,-2.4745 c 0.36107,0.462 0.73923,0.9102 1.13284,1.343 l -2.89636,4.9814 c 1.67421,1.6347 3.53278,3.052 5.53492,4.2206 l 3.71047,-4.4383 c 0.50909,0.2642 1.02756,0.5086 1.55422,0.7327 l -0.69554,5.8006 c 2.16926,0.7811 4.42159,1.2853 6.70754,1.5015 l 1.64804,-5.6175 c 0.58594,0.054 1.1629,0.044 1.70818,0.015 l 1.63878,5.5994 c 2.28673,-0.2155 4.53991,-0.7192 6.71005,-1.5001 l -0.69343,-5.7891 c 0.53039,-0.2229 1.05259,-0.466 1.56546,-0.7296 l 3.67927,4.4104 c 2.00898,-1.1581 3.87553,-2.5658 5.55854,-4.1922 l -2.91077,-5.0171 c 0.40219,-0.4222 0.7891,-0.8603 1.15984,-1.3128 l 5.07778,2.4658 c 1.38814,-1.9027 2.54936,-3.9737 3.45824,-6.1675 l -4.64331,-3.368 c 0.19812,-0.5545 0.37642,-1.1166 0.53415,-1.685 l 5.63138,0.098 c 0.48836,-2.1685 0.73933,-4.3875 0.74849,-6.6148 -0.004,-0.1624 -0.01,-0.3242 -0.0148,-0.4866 l -5.52714,-1.0971 c -0.0446,-0.5933 -0.11143,-1.1846 -0.19911,-1.7727 l 5.19361,-2.2993 c -0.44278,-2.3457 -1.15782,-4.6267 -2.12892,-6.7931 l -5.47513,1.3385 c -0.26549,-0.5271 -0.55028,-1.0436 -0.85315,-1.5485 l 3.83578,-4.28 c -1.31448,-1.9599 -2.85267,-3.7465 -4.58076,-5.3206 l -4.50539,3.5562 c -0.44527,-0.3711 -0.90355,-0.7246 -1.37414,-1.0601 l 1.83662,-5.5356 c -1.96282,-1.238 -4.06267,-2.2237 -6.25352,-2.9351 l -2.74288,5.1745 c -0.55036,-0.1461 -1.10581,-0.2711 -1.6651,-0.3745 l -0.48488,-5.8617 c -1.13789,-0.1525 -2.28362,-0.2332 -3.43087,-0.2416 z m 0,19.54 c 5.30349,0 9.60282,4.4759 9.60285,9.9972 -3e-5,5.5213 -4.29936,9.9972 -9.60285,9.9972 -5.30348,0 -9.60279,-4.4759 -9.60282,-9.9972 3e-5,-5.5213 4.29934,-9.9972 9.60282,-9.9972 z"
				  id="path2069"
				  inkscape:connector-curvature="0"
				  sodipodi:nodetypes="cccccccccccccccccccccccccccccccccccccccccccccccccccccccccccccccccccccc" />
		</g>
	</g>
</svg>