<?xml version="1.0" encoding="UTF-8" standalone="no" ?>
<!-- Created with Inkscape (http://www.inkscape.org/) -->

<svg xmlns:dc="http://purl.org/dc/elements/1.1/"
	 xmlns:cc="http://creativecommons.org/ns#"
	 xmlns:rdf="http://www.w3.org/1999/02/22-rdf-syntax-ns#"
	 xmlns:svg="http://www.w3.org/2000/svg"
	 xmlns="http://www.w3.org/2000/svg"
	 xmlns:xlink="http://www.w3.org/1999/xlink"
	 xmlns:sodipodi="http://sodipodi.sourceforge.net/DTD/sodipodi-0.dtd"
	 xmlns:inkscape="http://www.inkscape.org/namespaces/inkscape"
	 width="71.999725"
	 height="71.999855"
	 viewBox="0 0 71.999723 71.999858"
	 version="1.1"
	 id="svg1470"
	 sodipodi:docname="AppIcon_v5_72.svg"
	 inkscape:version="0.92.4 (5da689c313, 2019-01-14)"
	 inkscape:export-filename="W:\VS 2019 Projects\RandomPasswordGenerator\RandomPasswordGenerator\Content\Icons\64\AppIcon_v5_64.png"
	 inkscape:export-xdpi="96"
	 inkscape:export-ydpi="96">
	<defs id="defs1464">
		<linearGradient inkscape:collect="always"
						xlink:href="#linearGradient1420"
						id="linearGradient2087"
						gradientUnits="userSpaceOnUse"
						gradientTransform="matrix(2.2333634,0,0,2.2343951,1717.4033,-1383.4955)"
						x1="-656.27441"
						y1="996.85919"
						x2="-467.88651"
						y2="996.85919" />
		<linearGradient inkscape:collect="always"
						id="linearGradient1420">
			<stop style="stop-color:#000000;stop-opacity:1"
				  offset="0"
				  id="stop1416" />
			<stop id="stop1428"
				  offset="0.48921227"
				  style="stop-color:#000000;stop-opacity:1" />
			<stop style="stop-color:#787878;stop-opacity:1"
				  offset="0.50547951"
				  id="stop1430" />
			<stop style="stop-color:#787878;stop-opacity:1"
				  offset="1"
				  id="stop1418" />
		</linearGradient>
	</defs>
	<sodipodi:namedview id="base"
						pagecolor="#ffffff"
						bordercolor="#666666"
						borderopacity="1.0"
						inkscape:pageopacity="0.0"
						inkscape:pageshadow="2"
						inkscape:zoom="6.0767066"
						inkscape:cx="70.522014"
						inkscape:cy="29.432996"
						inkscape:document-units="px"
						inkscape:current-layer="layer1"
						showgrid="false"
						units="px"
						showborder="true"
						inkscape:snap-smooth-nodes="true"
						inkscape:object-nodes="true"
						inkscape:snap-intersection-paths="false"
						inkscape:window-width="1920"
						inkscape:window-height="1057"
						inkscape:window-x="-8"
						inkscape:window-y="-8"
						inkscape:window-maximized="1"
						showguides="true"
						inkscape:guide-bbox="true"
						inkscape:snap-nodes="true"
						fit-margin-top="0"
						fit-margin-left="0"
						fit-margin-right="0"
						fit-margin-bottom="0"
						inkscape:snap-center="true"
						inkscape:snap-object-midpoints="true"
						inkscape:showpageshadow="false" />
	<metadata id="metadata1467">
		<rdf:RDF>
			<cc:Work rdf:about="">
				<dc:format>image/svg+xml</dc:format>
				<dc:type rdf:resource="http://purl.org/dc/dcmitype/StillImage" />
				<dc:title></dc:title>
			</cc:Work>
		</rdf:RDF>
	</metadata>
	<g inkscape:label="Layer 1"
	   inkscape:groupmode="layer"
	   id="layer1"
	   transform="translate(257.56005,-991.58898)">
		<g id="g1431"
		   transform="matrix(0.07741906,0,0,0.0774192,-237.61999,981.24664)"
		   inkscape:export-xdpi="96"
		   inkscape:export-ydpi="96"
		   style="stroke-width:1.00000322">
			<g id="g2061"
			   transform="matrix(6.5188857,0,0,6.8651558,2366.5754,11.712294)"
			   style="stroke-width:1.00023162">
				<g id="g2053"
				   style="stroke-width:1.00023162">
					<path inkscape:connector-curvature="0"
						  style="opacity:1;fill:#5a8ad1;fill-opacity:1;stroke:none;stroke-width:0.26555628;stroke-miterlimit:4;stroke-dasharray:none;stroke-opacity:1"
						  d="M -331.21234,17.752921 V 153.21959 c 43.35735,-38.45246 67.60862,-56.439501 67.73334,-135.466669 0,0 -22.43988,5.309755 -33.86668,5.309754 -11.42677,0 -33.86666,-5.309754 -33.86666,-5.309754 z"
						  id="path2049" />
					<path inkscape:connector-curvature="0"
						  style="opacity:1;fill:#3771c8;fill-opacity:1;stroke:none;stroke-width:0.26555628;stroke-miterlimit:4;stroke-dasharray:none;stroke-opacity:1"
						  d="m -398.94568,17.752921 c 0.12473,79.027171 24.37601,97.014199 67.73334,135.466669 V 17.752921 c 0,0 -22.43987,5.309753 -33.86667,5.309754 -11.42677,0 -33.86667,-5.309754 -33.86667,-5.309754 z"
						  id="path2051" />
				</g>
				<g id="g2059"
				   style="stroke-width:1.00023162">
					<path inkscape:connector-curvature="0"
						  style="opacity:1;fill:#214478;fill-opacity:1;stroke:none;stroke-width:0.24184591;stroke-miterlimit:4;stroke-dasharray:none;stroke-opacity:1"
						  d="M -331.21234,23.800357 V 147.17215 c 39.48615,-35.01921 61.57206,-51.400626 61.68564,-123.371793 0,0 -20.43599,4.835881 -30.84255,4.835881 -10.40654,0 -30.84309,-4.835881 -30.84309,-4.835881 z"
						  id="path2055" />
					<path inkscape:connector-curvature="0"
						  style="opacity:1;fill:#002255;fill-opacity:1;stroke:none;stroke-width:0.24184591;stroke-miterlimit:4;stroke-dasharray:none;stroke-opacity:1"
						  d="m -392.89799,23.800357 c 0.11362,71.971173 22.19952,88.352583 61.68565,123.371793 V 23.800357 c 0,0 -20.43652,4.835878 -30.84306,4.835881 -10.40657,0 -30.84259,-4.835881 -30.84259,-4.835881 z"
						  id="path2057" />
				</g>
			</g>
			<g transform="matrix(1.8163964,0,0,1.8164059,-2682.1111,-519.33291)"
			   id="g1279"
			   style="stroke-width:1.00000322">
				<g id="g1265"
				   style="stroke-width:1.00000322">
					<path inkscape:connector-curvature="0"
						  id="rect2063"
						  d="m 1350.9044,537.44489 h 479.8214 v 104.28862 h -479.8214 z"
						  style="opacity:1;fill:#1c2224;fill-opacity:1;stroke:#37c8ab;stroke-width:0;stroke-linecap:round;stroke-linejoin:round;stroke-miterlimit:4;stroke-dasharray:none;stroke-opacity:1" />
					<g id="g2067"
					   style="stroke-width:1.00023162"
					   transform="matrix(0.9995434,0,0,0.99999988,2640.1253,-157.08971)">
						<g id="g2108"
						   style="stroke-width:1.00023162">
							<path sodipodi:nodetypes="cccccccccc"
								  inkscape:connector-curvature="0"
								  id="path1254"
								  transform="matrix(1.0004568,0,0,1.0000001,-2209.3189,295.67898)"
								  d="m 907.57617,386.22852 v 129.54296 c 167.61583,0 335.23173,0 502.84763,0 V 386.22852 c -167.6159,0 -335.2318,0 -502.84763,0 z m 493.92973,9.39257 v 110.75782 c -161.6706,0 -323.3412,0 -485.01176,0 V 395.62109 c 161.67056,0 323.34116,0 485.01176,0 z"
								  style="color:#000000;font-style:normal;font-variant:normal;font-weight:normal;font-stretch:normal;font-size:medium;line-height:normal;font-family:sans-serif;font-variant-ligatures:normal;font-variant-position:normal;font-variant-caps:normal;font-variant-numeric:normal;font-variant-alternates:normal;font-feature-settings:normal;text-indent:0;text-align:start;text-decoration:none;text-decoration-line:none;text-decoration-style:solid;text-decoration-color:#000000;letter-spacing:normal;word-spacing:normal;text-transform:none;writing-mode:lr-tb;direction:ltr;text-orientation:mixed;dominant-baseline:auto;baseline-shift:baseline;text-anchor:start;white-space:normal;shape-padding:0;clip-rule:nonzero;display:inline;overflow:visible;visibility:visible;opacity:1;isolation:auto;mix-blend-mode:normal;color-interpolation:sRGB;color-interpolation-filters:linearRGB;solid-color:#000000;solid-opacity:1;vector-effect:none;fill:#dbdee3;fill-opacity:1;fill-rule:nonzero;stroke:#dbdee3;stroke-width:9.1550293;stroke-linecap:butt;stroke-linejoin:miter;stroke-miterlimit:4;stroke-dasharray:none;stroke-dashoffset:0;stroke-opacity:1;color-rendering:auto;image-rendering:auto;shape-rendering:auto;text-rendering:auto;enable-background:accumulate" />
						</g>
					</g>
				</g>
				<g id="g2083"
				   transform="translate(1243.0002,-1466.8644)"
				   style="stroke-width:1.00000322">
					<path inkscape:connector-curvature="0"
						  style="opacity:1;fill:#37c8ab;fill-opacity:1;stroke:none;stroke-width:2.29279304;stroke-miterlimit:4;stroke-dasharray:none;stroke-opacity:1"
						  d="m 157.33189,2022.675 v 21.725 l -15.78048,-12.7694 -6.48294,9.9369 18.39623,14.8861 -18.39623,14.8861 6.48294,9.9368 15.78048,-12.7693 v 21.725 h 11.02869 v -21.7258 l 15.78123,12.7701 6.48226,-9.9368 -18.39628,-14.8861 18.39628,-14.8861 -6.48226,-9.9369 -15.78123,12.7702 v -21.7258 z"
						  id="path2071" />
					<path id="path2073"
						  d="m 230.34585,2022.675 v 21.725 l -15.78048,-12.7694 -6.48294,9.9369 18.39623,14.8861 -18.39623,14.8861 6.48294,9.9368 15.78048,-12.7693 v 21.725 h 11.02869 v -21.7258 l 15.78123,12.7701 6.48226,-9.9368 -18.39628,-14.8861 18.39628,-14.8861 -6.48226,-9.9369 -15.78123,12.7702 v -21.7258 z"
						  style="opacity:1;fill:#37c8ab;fill-opacity:1;stroke:none;stroke-width:2.29279304;stroke-miterlimit:4;stroke-dasharray:none;stroke-opacity:1"
						  inkscape:connector-curvature="0" />
					<path inkscape:connector-curvature="0"
						  style="opacity:1;fill:#37c8ab;fill-opacity:1;stroke:none;stroke-width:2.29279304;stroke-miterlimit:4;stroke-dasharray:none;stroke-opacity:1"
						  d="m 303.35981,2022.675 v 21.725 l -15.78048,-12.7694 -6.48294,9.9369 18.39623,14.8861 -18.39623,14.8861 6.48294,9.9368 15.78048,-12.7693 v 21.725 h 11.02869 v -21.7258 l 15.78123,12.7701 6.48226,-9.9368 -18.39628,-14.8861 18.39628,-14.8861 -6.48226,-9.9369 -15.78123,12.7702 v -21.7258 z"
						  id="path2075" />
					<path id="path2077"
						  d="m 376.37372,2022.675 v 21.725 l -15.78048,-12.7694 -6.48294,9.9369 18.39623,14.8861 -18.39623,14.8861 6.48294,9.9368 15.78048,-12.7693 v 21.725 h 11.02869 v -21.7258 l 15.78123,12.7701 6.48226,-9.9368 -18.39628,-14.8861 18.39628,-14.8861 -6.48226,-9.9369 -15.78123,12.7702 v -21.7258 z"
						  style="opacity:1;fill:#37c8ab;fill-opacity:1;stroke:none;stroke-width:2.29279304;stroke-miterlimit:4;stroke-dasharray:none;stroke-opacity:1"
						  inkscape:connector-curvature="0" />
					<path inkscape:connector-curvature="0"
						  style="opacity:1;fill:#37c8ab;fill-opacity:1;stroke:none;stroke-width:2.29279304;stroke-miterlimit:4;stroke-dasharray:none;stroke-opacity:1"
						  d="m 449.38771,2022.675 v 21.725 l -15.78048,-12.7694 -6.48294,9.9369 18.39623,14.8861 -18.39623,14.8861 6.48294,9.9368 15.78048,-12.7693 v 21.725 h 11.02869 v -21.7258 l 15.78123,12.7701 6.48226,-9.9368 -18.39628,-14.8861 18.39628,-14.8861 -6.48226,-9.9369 -15.78123,12.7702 v -21.7258 z"
						  id="path2079" />
					<path id="path2081"
						  d="m 527.26922,2022.675 v 21.725 l -15.78048,-12.7694 -6.48294,9.9369 18.39623,14.8861 -18.39623,14.8861 6.48294,9.9368 15.78048,-12.7693 v 21.725 h 11.02869 v -21.7258 l 15.78123,12.7701 6.48226,-9.9368 -18.39628,-14.8861 18.39628,-14.8861 -6.48226,-9.9369 -15.78123,12.7702 v -21.7258 z"
						  style="opacity:1;fill:#37c8ab;fill-opacity:1;stroke:none;stroke-width:2.29279304;stroke-miterlimit:4;stroke-dasharray:none;stroke-opacity:1"
						  inkscape:connector-curvature="0" />
				</g>
			</g>
			<path style="opacity:1;fill:url(#linearGradient2087);fill-opacity:1;stroke:#dbdee3;stroke-width:11.1719799;stroke-linecap:butt;stroke-linejoin:bevel;stroke-miterlimit:4;stroke-dasharray:none;stroke-opacity:1"
				  d="m 462.07323,629.76171 c -8.28862,0.0688 -16.56465,0.70439 -24.78206,1.84467 l -3.43551,42.33056 c -4.06058,0.79018 -8.09186,1.73412 -12.08504,2.84216 l -19.66938,-37.38969 c -15.84442,5.10081 -31.03896,12.19869 -45.25115,21.13712 l 13.29184,40.32113 c -3.44625,2.38428 -6.80515,4.90035 -10.071,7.54757 l -32.29138,-25.69081 c -12.52913,11.36527 -23.69579,24.28139 -33.25512,38.46618 l 27.86895,31.33667 c -2.21291,3.63031 -4.29921,7.34573 -6.24929,11.1394 l -39.5206,-9.7245 c -7.03963,15.71573 -12.23365,32.26968 -15.46786,49.29661 l 37.62878,16.7819 c -0.58628,4.2516 -1.02247,8.5252 -1.30492,12.8104 l -40.01971,8.0082 c -0.0707,1.1829 -0.10696,2.3664 -0.17802,3.55 0.0707,16.186 1.91615,32.3095 5.46244,48.0636 l 40.49151,-0.7325 c 1.15465,4.1548 2.45594,8.2622 3.90505,12.3147 l -33.31378,24.2677 c 6.48144,15.9868 14.79092,31.0895 24.74623,44.977 l 36.84303,-17.9784 c 2.60617,3.357 5.33567,6.6132 8.1767,9.7574 l -20.90562,36.19312 c 12.08428,11.8774 25.4993,22.1751 39.95055,30.6653 l 26.78184,-32.24702 c 3.67457,1.91942 7.41687,3.69552 11.21825,5.32392 l -5.02035,42.1445 c 15.65752,5.6754 31.91463,9.3387 48.41442,10.9094 l 11.89542,-40.8147 c 4.22926,0.3913 8.39369,0.3228 12.32947,0.11 l 11.82859,40.6829 c 16.50543,-1.5659 32.76866,-5.225 48.43253,-10.8991 l -5.00508,-42.0615 c 3.82829,-1.6194 7.5975,-3.3858 11.29932,-5.30062 l 26.55662,32.04392 c 14.50065,-8.414 27.97323,-18.6417 40.12105,-30.4587 l -21.00968,-36.45262 c 2.90302,-3.0673 5.69567,-6.2507 8.37162,-9.5384 l 36.65102,17.916 c 10.01945,-13.8244 18.40101,-28.8714 24.96128,-44.811 l -33.51503,-24.4708 c 1.43002,-4.0285 2.71695,-8.1126 3.85546,-12.242 l 40.64681,0.7147 c 3.5249,-15.7555 5.3364,-31.8783 5.4025,-48.0609 -0.026,-1.1794 -0.071,-2.3554 -0.107,-3.5355 l -39.89443,-7.9712 c -0.32201,-4.3106 -0.80432,-8.6068 -1.43716,-12.8797 l 37.48699,-16.7057 c -3.1959,-17.04272 -8.357,-33.61591 -15.36632,-49.35564 l -39.51901,9.7245 c -1.91626,-3.82938 -3.97187,-7.58189 -6.15795,-11.25064 l 27.68629,-31.09708 C 620.05756,707.07451 608.955,694.09387 596.48185,682.65721 l -32.51955,25.83768 c -3.21392,-2.69593 -6.52173,-5.26488 -9.91839,-7.70199 l 13.25654,-40.21954 c -14.16748,-8.99539 -29.32399,-16.15646 -45.13738,-21.32523 l -19.79785,37.59568 c -3.97243,-1.06137 -7.9816,-1.96963 -12.01855,-2.72069 l -3.49977,-42.58935 c -8.21325,-1.10804 -16.48297,-1.69432 -24.76373,-1.75543 z m 0,141.97005 c 38.28019,0 69.31238,32.52022 69.31257,72.63612 -1.9e-4,40.1158 -31.03238,72.6361 -69.31257,72.6361 -38.28004,0 -69.31207,-32.5203 -69.31226,-72.6361 1.9e-4,-40.1159 31.03222,-72.63612 69.31226,-72.63612 z"
				  id="path2069"
				  inkscape:connector-curvature="0"
				  sodipodi:nodetypes="cccccccccccccccccccccccccccccccccccccccccccccccccccccccccccccccccccccc" />
		</g>
	</g>
</svg>