<?xml version="1.0" encoding="UTF-8" standalone="no" ?>
<!-- Created with Inkscape (http://www.inkscape.org/) -->

<svg xmlns:dc="http://purl.org/dc/elements/1.1/"
	 xmlns:cc="http://creativecommons.org/ns#"
	 xmlns:rdf="http://www.w3.org/1999/02/22-rdf-syntax-ns#"
	 xmlns:svg="http://www.w3.org/2000/svg"
	 xmlns="http://www.w3.org/2000/svg"
	 xmlns:sodipodi="http://sodipodi.sourceforge.net/DTD/sodipodi-0.dtd"
	 xmlns:inkscape="http://www.inkscape.org/namespaces/inkscape"
	 width="72"
	 height="72"
	 viewBox="0 0 72 71.999998"
	 version="1.1"
	 id="svg976"
	 inkscape:version="0.92.4 (5da689c313, 2019-01-14)"
	 sodipodi:docname="AppIcon_v4_72.svg"
	 inkscape:export-filename="W:\VS 2019 Projects\RandomPasswordGenerator\RandomPasswordGenerator\Content\Icons\72\AppIcon_v4_72.png"
	 inkscape:export-xdpi="96"
	 inkscape:export-ydpi="96">
	<defs id="defs970" />
	<sodipodi:namedview id="base"
						pagecolor="#ffffff"
						bordercolor="#666666"
						borderopacity="1.0"
						inkscape:pageopacity="0.0"
						inkscape:pageshadow="2"
						inkscape:zoom="5.6"
						inkscape:cx="39.974413"
						inkscape:cy="27.312991"
						inkscape:document-units="px"
						inkscape:current-layer="layer1"
						showgrid="false"
						units="px"
						fit-margin-top="0"
						fit-margin-left="0"
						fit-margin-right="0"
						fit-margin-bottom="0"
						inkscape:window-width="1920"
						inkscape:window-height="1057"
						inkscape:window-x="-8"
						inkscape:window-y="-8"
						inkscape:window-maximized="1" />
	<metadata id="metadata973">
		<rdf:RDF>
			<cc:Work rdf:about="">
				<dc:format>image/svg+xml</dc:format>
				<dc:type rdf:resource="http://purl.org/dc/dcmitype/StillImage" />
				<dc:title />
			</cc:Work>
		</rdf:RDF>
	</metadata>
	<g inkscape:label="Layer 1"
	   inkscape:groupmode="layer"
	   id="layer1"
	   transform="translate(1256.8893,-208.61346)">
		<g id="g852"
		   inkscape:export-xdpi="96"
		   inkscape:export-ydpi="96">
			<path sodipodi:nodetypes="ccccccccc"
				  inkscape:connector-curvature="0"
				  id="rect6355"
				  d="m -1256.8892,218.77809 h 35.9999 36 v 30.91768 30.91769 h -36 -35.9999 v -30.91769 z"
				  style="opacity:1;fill:#000000;fill-opacity:1;stroke:none;stroke-width:0.41187885;stroke-miterlimit:4;stroke-dasharray:none" />
			<path inkscape:connector-curvature="0"
				  id="rect6358"
				  d="m -1256.8893,208.61346 v 10.16463 h 24 24 23.9999 v -10.16463 h -23.9999 -24 z"
				  style="opacity:1;fill:#7137c8;fill-opacity:1;stroke:none;stroke-width:0.31279966;stroke-miterlimit:4;stroke-dasharray:none" />
			<path id="rect4653"
				  d="m -1251.6823,225.60942 h 61.586 v 24.34171 h -61.586 z"
				  style="opacity:1;fill:#2d2d2d;fill-opacity:1;stroke:#ffffff;stroke-width:0.35153371;stroke-miterlimit:4;stroke-dasharray:none;stroke-opacity:1" />
			<g id="text4667"
			   style="font-style:normal;font-variant:normal;font-weight:normal;font-stretch:normal;font-size:17.99652863px;line-height:1.25;font-family:'OCR A Extended';-inkscape-font-specification:'OCR A Extended';letter-spacing:0px;word-spacing:0px;fill:#d5ffe6;fill-opacity:1;stroke:none;stroke-width:0.37492767"
			   transform="scale(0.75017624,1.3330201)"
			   aria-label="*@$758">
				<path id="path839"
					  style="text-align:center;text-anchor:middle;fill:#d5ffe6;stroke-width:0.37492767"
					  d="m -1655.4092,176.75025 v -2.17927 q 0,-0.29877 0.2197,-0.51845 0.2284,-0.21969 0.536,-0.21969 0.2988,0 0.5184,0.21969 0.2197,0.21968 0.2197,0.51845 v 2.21442 l 1.7223,-1.47628 q 0.2461,-0.20211 0.5624,-0.20211 0.3164,0 0.5185,0.22847 0.2021,0.21969 0.2021,0.50967 0,0.31635 -0.2197,0.50967 l -2.3726,2.02988 2.355,2.0211 q 0.2197,0.19332 0.2197,0.50088 0,0.30755 -0.2109,0.52724 -0.2109,0.21968 -0.5184,0.21968 -0.29,0 -0.5361,-0.20211 l -1.7223,-1.47628 v 2.21442 q 0,0.29877 -0.2197,0.51846 -0.2196,0.21968 -0.5184,0.21968 -0.3164,0 -0.536,-0.21968 -0.2197,-0.21969 -0.2197,-0.51846 v -2.17927 l -1.696,1.45871 q -0.2372,0.19332 -0.5272,0.19332 -0.3076,0 -0.5273,-0.21969 -0.2109,-0.22847 -0.2109,-0.53602 0,-0.31635 0.2197,-0.50088 l 2.3814,-2.0211 -2.3638,-2.02988 q -0.2285,-0.20211 -0.2285,-0.52724 0,-0.29877 0.2197,-0.51846 0.2197,-0.22847 0.5185,-0.22847 0.2987,0 0.536,0.2109 z" />
				<path id="path841"
					  style="text-align:center;text-anchor:middle;fill:#d5ffe6;stroke-width:0.37492767"
					  d="m -1641.7624,181.98752 v -6.90687 q 0,-0.40422 -0.3252,-0.72935 -0.3251,-0.33392 -0.7381,-0.33392 h -2.2672 q -0.5008,0 -0.7293,0.18453 -0.2285,0.18454 -0.4745,0.64148 -0.2373,0.44816 -0.6679,0.44816 -0.3427,0 -0.5536,-0.2109 -0.2021,-0.2109 -0.2021,-0.49209 0,-0.56239 0.7118,-1.30053 0.7206,-0.74693 1.696,-0.74693 h 2.5219 q 0.9754,0 1.7399,0.77329 0.7645,0.7645 0.7645,1.81898 v 6.94203 q 0,0.82601 -0.6502,1.47627 -0.6503,0.65027 -1.529,0.65027 -0.9227,0 -1.5115,-0.57997 -0.5799,0.57997 -1.4938,0.57997 -0.9403,0 -1.5905,-0.65905 -0.6415,-0.65906 -0.6415,-1.46749 v -2.83832 q 0,-0.91389 0.6503,-1.57294 0.659,-0.65906 1.5817,-0.65906 h 1.4411 q 0.7909,0 0.7909,0.79087 v 4.19157 q 0,0.30756 0.2109,0.52724 0.2197,0.2109 0.5272,0.2109 0.2988,0 0.5185,-0.2109 0.2197,-0.21968 0.2197,-0.52724 z m -2.9526,0 v -3.50616 h -0.6678 q -0.8261,0 -0.8261,0.82601 v 2.68015 q 0,0.30756 0.2197,0.52724 0.2197,0.2109 0.5185,0.2109 0.3075,0 0.5272,-0.2109 0.2285,-0.21968 0.2285,-0.52724 z" />
				<path id="path843"
					  style="text-align:center;text-anchor:middle;fill:#d5ffe6;stroke-width:0.37492767"
					  d="m -1629.4074,178.36713 v 2.55712 q 0,0.29877 -0.2285,0.51845 -0.2197,0.21969 -0.5272,0.21969 h -2.2496 v 1.80141 q 0,0.30756 -0.2197,0.52724 -0.2197,0.2109 -0.5184,0.2109 -0.3164,0 -0.5361,-0.2109 -0.2196,-0.21968 -0.2196,-0.52724 v -1.81899 h -2.232 q -0.2988,0 -0.5185,-0.21089 -0.2197,-0.21969 -0.2197,-0.52724 0,-0.30756 0.2109,-0.51846 0.2197,-0.21968 0.5273,-0.21968 h 5.2197 v -1.06327 h -5.2022 q -0.3075,0 -0.5272,-0.2109 -0.2109,-0.2109 -0.2109,-0.52724 v -2.54834 q 0,-0.30756 0.2109,-0.51846 0.2197,-0.21968 0.5272,-0.21968 h 2.2145 v -1.80141 q 0,-0.29877 0.2021,-0.51845 0.2109,-0.21969 0.5624,-0.21969 0.2987,0 0.5096,0.21969 0.2197,0.21089 0.2197,0.51845 v 1.80141 h 2.2672 q 0.3075,0 0.5272,0.21968 0.2285,0.21969 0.2285,0.51846 0,0.30756 -0.2285,0.53603 -0.2197,0.21968 -0.5272,0.21968 h -5.2197 v 1.05449 h 5.2021 q 0.3075,0 0.5272,0.21968 0.2285,0.21969 0.2285,0.51846 z" />
				<path id="path845"
					  style="text-align:center;text-anchor:middle;fill:#d5ffe6;stroke-width:0.37492767"
					  d="m -1626.0331,173.92951 v -0.63269 q 0,-0.30756 0.2109,-0.51846 0.2197,-0.21968 0.5273,-0.21968 h 6.696 v 4.53428 q 0,0.36028 -0.2725,0.59754 l -2.7153,2.31986 v 3.43586 q 0,0.30756 -0.2196,0.53603 -0.2109,0.21969 -0.5185,0.21969 -0.3075,0 -0.536,-0.21969 -0.2197,-0.21968 -0.2197,-0.51845 v -3.72584 q 0,-0.4218 0.2636,-0.65027 l 2.7241,-2.30229 v -2.75045 h -4.464 q -0.1582,0.63269 -0.7381,0.63269 -0.3076,0 -0.5273,-0.21089 -0.2109,-0.21969 -0.2109,-0.52724 z" />
				<path id="path847"
					  style="text-align:center;text-anchor:middle;fill:#d5ffe6;stroke-width:0.37492767"
					  d="m -1612.439,182.72566 h 3.4183 v -3.62039 h -4.464 v -6.56417 h 5.2021 q 0.2988,0 0.5185,0.21969 0.2197,0.21968 0.2197,0.51845 0,0.30756 -0.2197,0.52724 -0.2109,0.2109 -0.5185,0.2109 h -3.7082 v 3.61161 h 2.9701 q 0.5975,0 1.0369,0.43937 0.4394,0.43936 0.4394,1.03691 v 3.62039 q 0,0.60633 -0.4394,1.0457 -0.4306,0.43058 -1.0369,0.43058 h -3.4183 q -0.4569,0 -0.9754,-0.21969 l -1.116,-0.46573 q -0.4482,-0.18453 -0.4482,-0.70299 0,-0.30755 0.2022,-0.51845 0.2021,-0.21968 0.4921,-0.21968 0.2196,0 0.5096,0.13181 l 0.9754,0.413 q 0.1758,0.10545 0.3603,0.10545 z" />
				<path id="path849"
					  style="text-align:center;text-anchor:middle;fill:#d5ffe6;stroke-width:0.37492767"
					  d="m -1604.3283,182.70809 v -3.60282 q 0,-0.60633 0.4394,-1.03691 0.4394,-0.43937 1.0545,-0.43937 v -4.34975 q 0,-0.30756 0.2109,-0.51845 0.2109,-0.21969 0.5272,-0.21969 h 3.0053 q 0.3076,0 0.5185,0.21969 0.2196,0.21089 0.2196,0.51845 v 4.34975 q 0.5976,0 1.037,0.43058 0.4393,0.42179 0.4393,1.0457 v 3.62039 q 0,0.60633 -0.4393,1.0457 -0.4394,0.43058 -1.037,0.43058 h -4.4815 q -0.6239,0 -1.0633,-0.45694 -0.4306,-0.45695 -0.4306,-1.03691 z m 2.9702,-8.69071 v 3.61161 h 1.529 v -3.61161 z m -1.4763,5.08789 v 3.62039 h 4.4815 v -3.62039 z" />
			</g>
			<path id="rect4655"
				  d="m -1250.071,255.53783 h 58.3634 c 0.905,0 1.6337,0.72863 1.6337,1.6337 v 15.00034 c 0,0.90507 -0.7287,1.6337 -1.6337,1.6337 h -58.3634 c -0.9051,0 -1.6337,-0.72863 -1.6337,-1.6337 v -15.00034 c 0,-0.90507 0.7286,-1.6337 1.6337,-1.6337 z"
				  style="opacity:1;fill:#0066ff;fill-opacity:1;stroke:#ffffff;stroke-width:0.30464348;stroke-miterlimit:4;stroke-dasharray:none;stroke-opacity:1" />
			<g id="text4679"
			   style="font-style:normal;font-variant:normal;font-weight:normal;font-stretch:normal;font-size:10.96091557px;line-height:1.25;font-family:'OCR A Extended';-inkscape-font-specification:'OCR A Extended';letter-spacing:0px;word-spacing:0px;fill:#ffffff;fill-opacity:1;stroke:none;stroke-width:0.22835241"
			   transform="scale(0.91541047,1.0924061)"
			   aria-label="GENERATE">
				<path id="path852"
					  style="font-style:normal;font-variant:normal;font-weight:normal;font-stretch:normal;font-family:Calibri;-inkscape-font-specification:Calibri;text-align:center;text-anchor:middle;fill:#ffffff;stroke-width:0.22835241"
					  d="m -1350.9591,239.76244 q 0,0.10169 -0.011,0.18197 -0.011,0.0749 -0.032,0.12845 -0.021,0.0482 -0.053,0.0696 -0.032,0.0214 -0.07,0.0214 -0.064,0 -0.2141,-0.10169 -0.1498,-0.10169 -0.4014,-0.22478 -0.2515,-0.1231 -0.6047,-0.22479 -0.3479,-0.10168 -0.8296,-0.10168 -0.5727,0 -1.0276,0.20872 -0.4549,0.20873 -0.7707,0.57802 -0.3157,0.36929 -0.487,0.87773 -0.1659,0.50844 -0.1659,1.10251 0,0.66365 0.1819,1.17745 0.1874,0.51379 0.5138,0.86702 0.3265,0.35324 0.7761,0.5352 0.4549,0.18197 0.9955,0.18197 0.3211,0 0.6475,-0.0749 0.3319,-0.0803 0.6155,-0.23548 v -2.01771 h -1.6056 q -0.091,0 -0.1391,-0.091 -0.043,-0.091 -0.043,-0.28365 0,-0.10169 0.011,-0.17127 0.011,-0.0749 0.032,-0.11774 0.027,-0.0482 0.059,-0.0696 0.032,-0.0214 0.08,-0.0214 h 2.1997 q 0.059,0 0.1177,0.0214 0.059,0.0214 0.1071,0.0642 0.048,0.0428 0.075,0.11774 0.027,0.0749 0.027,0.17126 v 2.63855 q 0,0.13915 -0.048,0.24084 -0.048,0.10168 -0.2034,0.18196 -0.1552,0.0749 -0.4014,0.16592 -0.2462,0.091 -0.5084,0.1552 -0.2623,0.0642 -0.5299,0.0963 -0.2676,0.0321 -0.5298,0.0321 -0.8028,0 -1.4344,-0.24619 -0.6315,-0.25154 -1.0704,-0.71182 -0.4335,-0.46027 -0.6636,-1.10251 -0.2301,-0.64224 -0.2301,-1.43434 0,-0.82421 0.2462,-1.49321 0.2515,-0.669 0.7011,-1.13998 0.4549,-0.47097 1.0864,-0.72787 0.6369,-0.26225 1.4076,-0.26225 0.3961,0 0.7439,0.0696 0.3479,0.0696 0.6155,0.16591 0.273,0.091 0.4549,0.20338 0.1874,0.10704 0.2569,0.17661 0.07,0.0696 0.096,0.16056 0.027,0.091 0.027,0.26225 z" />
				<path id="path854"
					  style="font-style:normal;font-variant:normal;font-weight:normal;font-stretch:normal;font-family:Calibri;-inkscape-font-specification:Calibri;text-align:center;text-anchor:middle;fill:#ffffff;stroke-width:0.22835241"
					  d="m -1345.393,245.36599 q 0,0.0963 -0.011,0.17127 -0.011,0.0696 -0.037,0.11774 -0.027,0.0482 -0.064,0.0696 -0.032,0.0214 -0.075,0.0214 h -3.3236 q -0.1231,0 -0.2355,-0.0803 -0.107,-0.0856 -0.107,-0.29436 v -6.17622 q 0,-0.20873 0.107,-0.28901 0.1124,-0.0856 0.2355,-0.0856 h 3.2861 q 0.043,0 0.075,0.0214 0.037,0.0214 0.059,0.0696 0.021,0.0482 0.032,0.1231 0.016,0.0696 0.016,0.17661 0,0.0963 -0.016,0.17127 -0.011,0.0696 -0.032,0.11774 -0.021,0.0428 -0.059,0.0642 -0.032,0.0214 -0.075,0.0214 h -2.7081 v 2.17292 h 2.3228 q 0.043,0 0.075,0.0268 0.038,0.0214 0.059,0.0642 0.027,0.0428 0.038,0.11775 0.011,0.0749 0.011,0.17661 0,0.0963 -0.011,0.16592 -0.011,0.0696 -0.038,0.11239 -0.021,0.0428 -0.059,0.0642 -0.032,0.0161 -0.075,0.0161 h -2.3228 v 2.47798 h 2.7456 q 0.043,0 0.075,0.0214 0.037,0.0214 0.064,0.0696 0.027,0.0428 0.037,0.11775 0.011,0.0696 0.011,0.17661 z" />
				<path id="path856"
					  style="font-style:normal;font-variant:normal;font-weight:normal;font-stretch:normal;font-family:Calibri;-inkscape-font-specification:Calibri;text-align:center;text-anchor:middle;fill:#ffffff;stroke-width:0.22835241"
					  d="m -1338.6602,245.36599 q 0,0.10704 -0.037,0.18197 -0.032,0.0749 -0.091,0.1231 -0.053,0.0482 -0.1231,0.0696 -0.07,0.0214 -0.1392,0.0214 h -0.2943 q -0.1392,0 -0.2462,-0.0268 -0.1017,-0.0321 -0.198,-0.10704 -0.091,-0.0803 -0.1873,-0.21408 -0.091,-0.1338 -0.2034,-0.34253 l -2.1836,-3.93908 q -0.1713,-0.30506 -0.3479,-0.63688 -0.1713,-0.33718 -0.3211,-0.65295 h -0.011 q 0.011,0.38535 0.016,0.78675 0.01,0.4014 0.01,0.79745 v 4.17991 q 0,0.0375 -0.021,0.0749 -0.022,0.0321 -0.075,0.0535 -0.048,0.0161 -0.1338,0.0268 -0.08,0.0161 -0.2087,0.0161 -0.1285,0 -0.2141,-0.0161 -0.08,-0.0107 -0.1284,-0.0268 -0.048,-0.0214 -0.07,-0.0535 -0.021,-0.0375 -0.021,-0.0749 v -6.39029 q 0,-0.21409 0.1177,-0.30507 0.1178,-0.091 0.2569,-0.091 h 0.4389 q 0.1552,0 0.2569,0.0268 0.107,0.0268 0.1873,0.091 0.086,0.0589 0.1606,0.17127 0.08,0.10704 0.1712,0.27295 l 1.6806,3.03994 q 0.1552,0.2783 0.2997,0.5459 0.1445,0.26225 0.2783,0.51915 0.1338,0.2569 0.2622,0.50844 0.1338,0.24619 0.2623,0.49774 h 0.01 q -0.011,-0.42281 -0.016,-0.87773 0,-0.46028 0,-0.88308 v -3.75712 q 0,-0.0375 0.021,-0.0696 0.021,-0.0321 0.07,-0.0535 0.053,-0.0268 0.1338,-0.0375 0.086,-0.0107 0.2194,-0.0107 0.1177,0 0.2034,0.0107 0.086,0.0107 0.1338,0.0375 0.048,0.0214 0.07,0.0535 0.021,0.0321 0.021,0.0696 z" />
				<path id="path858"
					  style="font-style:normal;font-variant:normal;font-weight:normal;font-stretch:normal;font-family:Calibri;-inkscape-font-specification:Calibri;text-align:center;text-anchor:middle;fill:#ffffff;stroke-width:0.22835241"
					  d="m -1332.9549,245.36599 q 0,0.0963 -0.011,0.17127 -0.011,0.0696 -0.037,0.11774 -0.027,0.0482 -0.064,0.0696 -0.032,0.0214 -0.075,0.0214 h -3.3236 q -0.1231,0 -0.2355,-0.0803 -0.1071,-0.0856 -0.1071,-0.29436 v -6.17622 q 0,-0.20873 0.1071,-0.28901 0.1124,-0.0856 0.2355,-0.0856 h 3.2861 q 0.043,0 0.075,0.0214 0.038,0.0214 0.059,0.0696 0.021,0.0482 0.032,0.1231 0.016,0.0696 0.016,0.17661 0,0.0963 -0.016,0.17127 -0.011,0.0696 -0.032,0.11774 -0.021,0.0428 -0.059,0.0642 -0.032,0.0214 -0.075,0.0214 h -2.7081 v 2.17292 h 2.3228 q 0.043,0 0.075,0.0268 0.037,0.0214 0.059,0.0642 0.027,0.0428 0.037,0.11775 0.011,0.0749 0.011,0.17661 0,0.0963 -0.011,0.16592 -0.011,0.0696 -0.037,0.11239 -0.021,0.0428 -0.059,0.0642 -0.032,0.0161 -0.075,0.0161 h -2.3228 v 2.47798 h 2.7456 q 0.043,0 0.075,0.0214 0.037,0.0214 0.064,0.0696 0.027,0.0428 0.037,0.11775 0.011,0.0696 0.011,0.17661 z" />
				<path id="path860"
					  style="font-style:normal;font-variant:normal;font-weight:normal;font-stretch:normal;font-family:Calibri;-inkscape-font-specification:Calibri;text-align:center;text-anchor:middle;fill:#ffffff;stroke-width:0.22835241"
					  d="m -1326.8376,245.60683 q 0,0.0428 -0.016,0.0749 -0.016,0.0321 -0.07,0.0535 -0.053,0.0214 -0.1499,0.0321 -0.096,0.0107 -0.2568,0.0107 -0.1392,0 -0.2302,-0.0107 -0.086,-0.0107 -0.1391,-0.0321 -0.054,-0.0268 -0.086,-0.0696 -0.027,-0.0428 -0.048,-0.10704 l -0.6369,-1.63237 q -0.1124,-0.2783 -0.2355,-0.50844 -0.1178,-0.23549 -0.2837,-0.4014 -0.1659,-0.17126 -0.3907,-0.26225 -0.2248,-0.0963 -0.5405,-0.0963 h -0.6155 v 2.94895 q 0,0.0428 -0.027,0.0749 -0.021,0.0321 -0.075,0.0535 -0.048,0.0161 -0.1391,0.0268 -0.086,0.0161 -0.2195,0.0161 -0.1338,0 -0.2248,-0.0161 -0.086,-0.0107 -0.1391,-0.0268 -0.054,-0.0214 -0.075,-0.0535 -0.021,-0.0321 -0.021,-0.0749 v -6.4117 q 0,-0.20873 0.107,-0.28901 0.1124,-0.0856 0.2355,-0.0856 h 1.4718 q 0.2622,0 0.4335,0.0161 0.1766,0.0107 0.3158,0.0268 0.4014,0.0696 0.7064,0.21944 0.3104,0.14985 0.5192,0.37999 0.2087,0.23013 0.3104,0.52985 0.107,0.29436 0.107,0.65294 0,0.34788 -0.096,0.62619 -0.091,0.27295 -0.2676,0.48703 -0.1766,0.20873 -0.4228,0.36394 -0.2462,0.1552 -0.5513,0.26224 0.1713,0.0749 0.3104,0.19268 0.1392,0.11239 0.2569,0.27295 0.1231,0.16056 0.2302,0.36929 0.107,0.20873 0.2141,0.47098 l 0.6208,1.52532 q 0.075,0.19267 0.096,0.27295 0.021,0.0749 0.021,0.11774 z m -1.3861,-4.86497 q 0,-0.40675 -0.182,-0.68506 -0.182,-0.28366 -0.6101,-0.40675 -0.1338,-0.0375 -0.3051,-0.0535 -0.1659,-0.0161 -0.4389,-0.0161 h -0.776 v 2.33348 h 0.8991 q 0.364,0 0.6262,-0.0856 0.2676,-0.091 0.4442,-0.2462 0.1767,-0.16056 0.2569,-0.37464 0.086,-0.21408 0.086,-0.46562 z" />
				<path id="path862"
					  style="font-style:normal;font-variant:normal;font-weight:normal;font-stretch:normal;font-family:Calibri;-inkscape-font-specification:Calibri;text-align:center;text-anchor:middle;fill:#ffffff;stroke-width:0.22835241"
					  d="m -1320.3188,245.41951 q 0.043,0.11775 0.043,0.19268 0.01,0.0696 -0.037,0.10704 -0.043,0.0375 -0.1445,0.0482 -0.096,0.0107 -0.2622,0.0107 -0.1659,0 -0.2676,-0.0107 -0.096,-0.005 -0.1499,-0.0214 -0.048,-0.0214 -0.075,-0.0535 -0.021,-0.0321 -0.043,-0.0803 l -0.5941,-1.68589 h -2.8794 l -0.5673,1.66448 q -0.016,0.0482 -0.043,0.0856 -0.027,0.0321 -0.08,0.0589 -0.048,0.0214 -0.1445,0.0321 -0.091,0.0107 -0.2408,0.0107 -0.1552,0 -0.2569,-0.0161 -0.096,-0.0107 -0.1392,-0.0482 -0.037,-0.0375 -0.037,-0.10704 0.01,-0.0749 0.048,-0.19267 l 2.3228,-6.43311 q 0.021,-0.0589 0.053,-0.0963 0.037,-0.0375 0.1017,-0.0589 0.07,-0.0214 0.1713,-0.0268 0.107,-0.0107 0.2676,-0.0107 0.1712,0 0.2836,0.0107 0.1124,0.005 0.182,0.0268 0.07,0.0214 0.107,0.0642 0.037,0.0375 0.059,0.0963 z m -2.9811,-5.67848 h -0.01 l -1.1935,3.45205 h 2.4084 z" />
				<path id="path864"
					  style="font-style:normal;font-variant:normal;font-weight:normal;font-stretch:normal;font-family:Calibri;-inkscape-font-specification:Calibri;text-align:center;text-anchor:middle;fill:#ffffff;stroke-width:0.22835241"
					  d="m -1315.684,239.21654 q 0,0.10168 -0.011,0.17661 -0.011,0.0749 -0.037,0.1231 -0.022,0.0428 -0.059,0.0642 -0.032,0.0214 -0.075,0.0214 h -1.9482 v 6.00495 q 0,0.0428 -0.021,0.0749 -0.021,0.0321 -0.075,0.0535 -0.053,0.0161 -0.1445,0.0268 -0.086,0.0161 -0.2194,0.0161 -0.1285,0 -0.2195,-0.0161 -0.091,-0.0107 -0.1445,-0.0268 -0.053,-0.0214 -0.075,-0.0535 -0.021,-0.0321 -0.021,-0.0749 v -6.00495 h -1.9482 q -0.043,0 -0.08,-0.0214 -0.032,-0.0214 -0.054,-0.0642 -0.021,-0.0482 -0.037,-0.1231 -0.011,-0.0749 -0.011,-0.17661 0,-0.10169 0.011,-0.17662 0.016,-0.0803 0.037,-0.12845 0.022,-0.0482 0.054,-0.0696 0.037,-0.0214 0.08,-0.0214 h 4.8169 q 0.043,0 0.075,0.0214 0.037,0.0214 0.059,0.0696 0.027,0.0482 0.037,0.12845 0.011,0.0749 0.011,0.17662 z" />
				<path id="path866"
					  style="font-style:normal;font-variant:normal;font-weight:normal;font-stretch:normal;font-family:Calibri;-inkscape-font-specification:Calibri;text-align:center;text-anchor:middle;fill:#ffffff;stroke-width:0.22835241"
					  d="m -1310.819,245.36599 q 0,0.0963 -0.011,0.17127 -0.011,0.0696 -0.037,0.11774 -0.027,0.0482 -0.064,0.0696 -0.032,0.0214 -0.075,0.0214 h -3.3236 q -0.1231,0 -0.2355,-0.0803 -0.107,-0.0856 -0.107,-0.29436 v -6.17622 q 0,-0.20873 0.107,-0.28901 0.1124,-0.0856 0.2355,-0.0856 h 3.2861 q 0.043,0 0.075,0.0214 0.038,0.0214 0.059,0.0696 0.021,0.0482 0.032,0.1231 0.016,0.0696 0.016,0.17661 0,0.0963 -0.016,0.17127 -0.011,0.0696 -0.032,0.11774 -0.021,0.0428 -0.059,0.0642 -0.032,0.0214 -0.075,0.0214 h -2.7081 v 2.17292 h 2.3228 q 0.043,0 0.075,0.0268 0.037,0.0214 0.059,0.0642 0.027,0.0428 0.037,0.11775 0.011,0.0749 0.011,0.17661 0,0.0963 -0.011,0.16592 -0.011,0.0696 -0.037,0.11239 -0.021,0.0428 -0.059,0.0642 -0.032,0.0161 -0.075,0.0161 h -2.3228 v 2.47798 h 2.7456 q 0.043,0 0.075,0.0214 0.037,0.0214 0.064,0.0696 0.027,0.0428 0.037,0.11775 0.011,0.0696 0.011,0.17661 z" />
			</g>
		</g>
	</g>
</svg>