<?xml version="1.0" encoding="UTF-8" standalone="no" ?>
<!-- Created with Inkscape (http://www.inkscape.org/) -->

<svg xmlns:dc="http://purl.org/dc/elements/1.1/"
	 xmlns:cc="http://creativecommons.org/ns#"
	 xmlns:rdf="http://www.w3.org/1999/02/22-rdf-syntax-ns#"
	 xmlns:svg="http://www.w3.org/2000/svg"
	 xmlns="http://www.w3.org/2000/svg"
	 xmlns:xlink="http://www.w3.org/1999/xlink"
	 xmlns:sodipodi="http://sodipodi.sourceforge.net/DTD/sodipodi-0.dtd"
	 xmlns:inkscape="http://www.inkscape.org/namespaces/inkscape"
	 width="512"
	 height="512"
	 viewBox="0 0 512 512.00004"
	 version="1.1"
	 id="svg1470"
	 sodipodi:docname="AppIcon_v5_512.svg"
	 inkscape:version="0.92.4 (5da689c313, 2019-01-14)"
	 inkscape:export-filename="W:\VS 2019 Projects\RandomPasswordGenerator\RandomPasswordGenerator\Content\Icons\512\AppIcon_v5_512.png"
	 inkscape:export-xdpi="96"
	 inkscape:export-ydpi="96">
	<defs id="defs1464">
		<linearGradient inkscape:collect="always"
						xlink:href="#linearGradient1420"
						id="linearGradient2087"
						gradientUnits="userSpaceOnUse"
						gradientTransform="matrix(0.62146586,0,0,0.61505941,290.3323,389.98272)"
						x1="-656.27441"
						y1="996.85919"
						x2="-467.88651"
						y2="996.85919" />
		<linearGradient inkscape:collect="always"
						id="linearGradient1420">
			<stop style="stop-color:#000000;stop-opacity:1"
				  offset="0"
				  id="stop1416" />
			<stop id="stop1428"
				  offset="0.48921227"
				  style="stop-color:#000000;stop-opacity:1" />
			<stop style="stop-color:#787878;stop-opacity:1"
				  offset="0.50547951"
				  id="stop1430" />
			<stop style="stop-color:#787878;stop-opacity:1"
				  offset="1"
				  id="stop1418" />
		</linearGradient>
		<linearGradient inkscape:collect="always"
						xlink:href="#linearGradient1420"
						id="linearGradient6547"
						gradientUnits="userSpaceOnUse"
						gradientTransform="matrix(2.7001134,0,0,2.6665725,3611.1223,-2311.7049)"
						x1="-656.27441"
						y1="996.85919"
						x2="-467.88651"
						y2="996.85919" />
	</defs>
	<sodipodi:namedview id="base"
						pagecolor="#ffffff"
						bordercolor="#666666"
						borderopacity="1.0"
						inkscape:pageopacity="0.0"
						inkscape:pageshadow="2"
						inkscape:zoom="0.1767767"
						inkscape:cx="919.78138"
						inkscape:cy="-193.25324"
						inkscape:document-units="px"
						inkscape:current-layer="layer1"
						showgrid="false"
						units="px"
						showborder="true"
						inkscape:snap-smooth-nodes="false"
						inkscape:object-nodes="true"
						inkscape:snap-intersection-paths="false"
						inkscape:window-width="1920"
						inkscape:window-height="1057"
						inkscape:window-x="-8"
						inkscape:window-y="-8"
						inkscape:window-maximized="1"
						showguides="true"
						inkscape:guide-bbox="true"
						inkscape:snap-nodes="true"
						fit-margin-top="0"
						fit-margin-left="0"
						fit-margin-right="0"
						fit-margin-bottom="0"
						inkscape:snap-center="true"
						inkscape:snap-object-midpoints="false"
						inkscape:showpageshadow="false"
						inkscape:snap-page="false"
						inkscape:snap-grids="false"
						inkscape:snap-to-guides="false"
						inkscape:snap-midpoints="false"
						inkscape:snap-text-baseline="false"
						inkscape:snap-others="true" />
	<metadata id="metadata1467">
		<rdf:RDF>
			<cc:Work rdf:about="">
				<dc:format>image/svg+xml</dc:format>
				<dc:type rdf:resource="http://purl.org/dc/dcmitype/StillImage" />
				<dc:title />
			</cc:Work>
		</rdf:RDF>
	</metadata>
	<g inkscape:label="Layer 1"
	   inkscape:groupmode="layer"
	   id="layer1"
	   transform="translate(257.5642,-551.58873)">
		<g id="g925"
		   transform="matrix(2.0042489,0,0,2,258.00799,-1063.5889)"
		   style="stroke-width:0.49946973">
			<g id="g2061"
			   transform="matrix(1.8139748,0,0,1.8897637,470.97388,774.03999)"
			   style="stroke-width:0.13974957">
				<g id="g2053"
				   style="stroke-width:0.13974957">
					<path inkscape:connector-curvature="0"
						  style="opacity:1;fill:#5a8ad1;fill-opacity:1;stroke:none;stroke-width:0.0371028;stroke-miterlimit:4;stroke-dasharray:none;stroke-opacity:1"
						  d="M -331.21234,17.752921 V 153.21959 c 43.35735,-38.45246 67.60862,-56.439501 67.73334,-135.466669 0,0 -22.43988,5.309755 -33.86668,5.309754 -11.42677,0 -33.86666,-5.309754 -33.86666,-5.309754 z"
						  id="path2049" />
					<path inkscape:connector-curvature="0"
						  style="opacity:1;fill:#3771c8;fill-opacity:1;stroke:none;stroke-width:0.0371028;stroke-miterlimit:4;stroke-dasharray:none;stroke-opacity:1"
						  d="m -398.94568,17.752921 c 0.12473,79.027171 24.37601,97.014199 67.73334,135.466669 V 17.752921 c 0,0 -22.43987,5.309753 -33.86667,5.309754 -11.42677,0 -33.86667,-5.309754 -33.86667,-5.309754 z"
						  id="path2051" />
				</g>
				<g id="g2059"
				   style="stroke-width:0.13974957">
					<path inkscape:connector-curvature="0"
						  style="opacity:1;fill:#214478;fill-opacity:1;stroke:none;stroke-width:0.03379005;stroke-miterlimit:4;stroke-dasharray:none;stroke-opacity:1"
						  d="M -331.21234,23.800357 V 147.17215 c 39.48615,-35.01921 61.57206,-51.400626 61.68564,-123.371793 0,0 -20.43599,4.835881 -30.84255,4.835881 -10.40654,0 -30.84309,-4.835881 -30.84309,-4.835881 z"
						  id="path2055" />
					<path inkscape:connector-curvature="0"
						  style="opacity:1;fill:#002255;fill-opacity:1;stroke:none;stroke-width:0.03379005;stroke-miterlimit:4;stroke-dasharray:none;stroke-opacity:1"
						  d="m -392.89799,23.800357 c 0.11362,71.971173 22.19952,88.352583 61.68565,123.371793 V 23.800357 c 0,0 -20.43652,4.835878 -30.84306,4.835881 -10.40657,0 -30.84259,-4.835881 -30.84259,-4.835881 z"
						  id="path2057" />
				</g>
			</g>
			<g id="g902"
			   style="stroke-width:0.49946973">
				<g id="g888"
				   style="stroke-width:0.49946973">
					<path sodipodi:nodetypes="ccccc"
						  inkscape:connector-curvature="0"
						  id="rect2063"
						  d="M -252.40886,894.96494 H -7.2651316 v 55.37891 H -252.40886 Z"
						  style="opacity:1;fill:#1c2224;fill-opacity:1;stroke:#37c8ab;stroke-width:0;stroke-linecap:round;stroke-linejoin:round;stroke-miterlimit:4;stroke-dasharray:none;stroke-opacity:1" />
					<g id="g2067"
					   style="stroke-width:0.13974957"
					   transform="matrix(0.50520795,0,0,0.49999994,400.52498,549.31493)">
						<g id="g2108"
						   style="stroke-width:0.13974957">
							<path sodipodi:nodetypes="cccccccccc"
								  inkscape:connector-curvature="0"
								  id="path1254"
								  transform="matrix(1.0004568,0,0,1.0000001,-2209.3189,295.67898)"
								  d="m 907.57617,386.22852 v 129.54296 c 167.61583,0 335.23173,0 502.84763,0 V 386.22852 c -167.6159,0 -335.2318,0 -502.84763,0 z m 493.92973,9.39257 v 110.75782 c -161.6706,0 -323.3412,0 -485.01176,0 V 395.62109 c 161.67056,0 323.34116,0 485.01176,0 z"
								  style="color:#000000;font-style:normal;font-variant:normal;font-weight:normal;font-stretch:normal;font-size:medium;line-height:normal;font-family:sans-serif;font-variant-ligatures:normal;font-variant-position:normal;font-variant-caps:normal;font-variant-numeric:normal;font-variant-alternates:normal;font-feature-settings:normal;text-indent:0;text-align:start;text-decoration:none;text-decoration-line:none;text-decoration-style:solid;text-decoration-color:#000000;letter-spacing:normal;word-spacing:normal;text-transform:none;writing-mode:lr-tb;direction:ltr;text-orientation:mixed;dominant-baseline:auto;baseline-shift:baseline;text-anchor:start;white-space:normal;shape-padding:0;clip-rule:nonzero;display:inline;overflow:visible;visibility:visible;opacity:1;isolation:auto;mix-blend-mode:normal;color-interpolation:sRGB;color-interpolation-filters:linearRGB;solid-color:#000000;solid-opacity:1;vector-effect:none;fill:#dbdee3;fill-opacity:1;fill-rule:nonzero;stroke:#dbdee3;stroke-width:1.2791152;stroke-linecap:butt;stroke-linejoin:miter;stroke-miterlimit:4;stroke-dasharray:none;stroke-dashoffset:0;stroke-opacity:1;color-rendering:auto;image-rendering:auto;shape-rendering:auto;text-rendering:auto;enable-background:accumulate" />
						</g>
					</g>
				</g>
				<g id="g2083"
				   transform="matrix(0.50543873,0,0,0.5,-305.63615,-105.5724)"
				   style="stroke-width:0.13971764">
					<path inkscape:connector-curvature="0"
						  style="opacity:1;fill:#37c8ab;fill-opacity:1;stroke:none;stroke-width:0.32034263;stroke-miterlimit:4;stroke-dasharray:none;stroke-opacity:1"
						  d="m 157.33189,2022.675 v 21.725 l -15.78048,-12.7694 -6.48294,9.9369 18.39623,14.8861 -18.39623,14.8861 6.48294,9.9368 15.78048,-12.7693 v 21.725 h 11.02869 v -21.7258 l 15.78123,12.7701 6.48226,-9.9368 -18.39628,-14.8861 18.39628,-14.8861 -6.48226,-9.9369 -15.78123,12.7702 v -21.7258 z"
						  id="path2071" />
					<path id="path2073"
						  d="m 230.34585,2022.675 v 21.725 l -15.78048,-12.7694 -6.48294,9.9369 18.39623,14.8861 -18.39623,14.8861 6.48294,9.9368 15.78048,-12.7693 v 21.725 h 11.02869 v -21.7258 l 15.78123,12.7701 6.48226,-9.9368 -18.39628,-14.8861 18.39628,-14.8861 -6.48226,-9.9369 -15.78123,12.7702 v -21.7258 z"
						  style="opacity:1;fill:#37c8ab;fill-opacity:1;stroke:none;stroke-width:0.32034263;stroke-miterlimit:4;stroke-dasharray:none;stroke-opacity:1"
						  inkscape:connector-curvature="0" />
					<path inkscape:connector-curvature="0"
						  style="opacity:1;fill:#37c8ab;fill-opacity:1;stroke:none;stroke-width:0.32034263;stroke-miterlimit:4;stroke-dasharray:none;stroke-opacity:1"
						  d="m 303.35981,2022.675 v 21.725 l -15.78048,-12.7694 -6.48294,9.9369 18.39623,14.8861 -18.39623,14.8861 6.48294,9.9368 15.78048,-12.7693 v 21.725 h 11.02869 v -21.7258 l 15.78123,12.7701 6.48226,-9.9368 -18.39628,-14.8861 18.39628,-14.8861 -6.48226,-9.9369 -15.78123,12.7702 v -21.7258 z"
						  id="path2075" />
					<path id="path2077"
						  d="m 376.37372,2022.675 v 21.725 l -15.78048,-12.7694 -6.48294,9.9369 18.39623,14.8861 -18.39623,14.8861 6.48294,9.9368 15.78048,-12.7693 v 21.725 h 11.02869 v -21.7258 l 15.78123,12.7701 6.48226,-9.9368 -18.39628,-14.8861 18.39628,-14.8861 -6.48226,-9.9369 -15.78123,12.7702 v -21.7258 z"
						  style="opacity:1;fill:#37c8ab;fill-opacity:1;stroke:none;stroke-width:0.32034263;stroke-miterlimit:4;stroke-dasharray:none;stroke-opacity:1"
						  inkscape:connector-curvature="0" />
					<path inkscape:connector-curvature="0"
						  style="opacity:1;fill:#37c8ab;fill-opacity:1;stroke:none;stroke-width:0.32034263;stroke-miterlimit:4;stroke-dasharray:none;stroke-opacity:1"
						  d="m 449.38771,2022.675 v 21.725 l -15.78048,-12.7694 -6.48294,9.9369 18.39623,14.8861 -18.39623,14.8861 6.48294,9.9368 15.78048,-12.7693 v 21.725 h 11.02869 v -21.7258 l 15.78123,12.7701 6.48226,-9.9368 -18.39628,-14.8861 18.39628,-14.8861 -6.48226,-9.9369 -15.78123,12.7702 v -21.7258 z"
						  id="path2079" />
					<path id="path2081"
						  d="m 527.26922,2022.675 v 21.725 l -15.78048,-12.7694 -6.48294,9.9369 18.39623,14.8861 -18.39623,14.8861 6.48294,9.9368 15.78048,-12.7693 v 21.725 h 11.02869 v -21.7258 l 15.78123,12.7701 6.48226,-9.9368 -18.39628,-14.8861 18.39628,-14.8861 -6.48226,-9.9369 -15.78123,12.7702 v -21.7258 z"
						  style="opacity:1;fill:#37c8ab;fill-opacity:1;stroke:none;stroke-width:0.32034263;stroke-miterlimit:4;stroke-dasharray:none;stroke-opacity:1"
						  inkscape:connector-curvature="0" />
				</g>
			</g>
			<path style="opacity:1;fill:url(#linearGradient2087);fill-opacity:1;stroke:#dbdee3;stroke-width:0.43200386;stroke-linecap:butt;stroke-linejoin:bevel;stroke-miterlimit:4;stroke-dasharray:none;stroke-opacity:1"
				  d="m -58.981561,944.16975 c -2.306429,0.0189 -4.609354,0.1939 -6.895968,0.50778 l -0.955981,11.65229 c -1.129915,0.21751 -2.251678,0.47735 -3.362838,0.78236 l -5.473291,-10.29222 c -4.408941,1.40409 -8.637043,3.35792 -12.591791,5.81839 l 3.698648,11.09915 c -0.95897,0.65632 -1.893632,1.34892 -2.802403,2.07761 l -8.985546,-7.07188 c -3.486413,3.12851 -6.593699,6.68392 -9.253719,10.58855 l 7.754939,8.62601 c -0.615775,0.99931 -1.196318,2.02205 -1.738956,3.06633 l -10.997183,-2.67686 c -1.95888,4.32606 -3.40419,8.88284 -4.30416,13.56983 l 10.47076,4.61953 c -0.16314,1.17033 -0.28452,2.34672 -0.36311,3.52628 l -11.13607,2.2044 c -0.0197,0.3256 -0.0298,0.6514 -0.0495,0.9772 0.0197,4.4555 0.5332,8.8938 1.52001,13.2305 l 11.26735,-0.2017 c 0.3213,1.1437 0.6834,2.2743 1.08664,3.3899 l -9.27005,6.6801 c 1.80356,4.4007 4.11579,8.558 6.886,12.3808 l 10.252109,-4.9489 c 0.725205,0.9241 1.484728,1.8204 2.275286,2.6859 l -5.817293,9.9628 c 3.362627,3.2695 7.095551,6.1041 11.116822,8.4412 l 7.452436,-8.8766 c 1.022503,0.5284 2.063852,1.0173 3.121642,1.4655 l -1.396986,11.6011 c 4.356933,1.5623 8.88071,2.5707 13.472017,3.003 l 3.310074,-11.235 c 1.176853,0.1077 2.335666,0.089 3.430854,0.03 l 3.291477,11.1987 c 4.592876,-0.431 9.118357,-1.4382 13.477057,-3.0002 l -1.392737,-11.5782 c 1.065278,-0.4457 2.114115,-0.932 3.1442,-1.4591 l 7.389766,8.8207 c 4.035017,-2.3161 7.783959,-5.1315 11.164266,-8.3843 l -5.846249,-10.0343 c 0.807808,-0.8443 1.584903,-1.7206 2.329525,-2.6256 l 10.19868,4.9317 c 2.788058,-3.8054 5.1203485,-7.9474 6.9458391,-12.3351 l -9.3260451,-6.736 c 0.397924,-1.1089 0.756031,-2.2332 1.072838,-3.3699 l 11.3105665,0.1968 c 0.9808547,-4.337 1.484931,-8.7751 1.5033242,-13.2297 -0.00723,-0.3246 -0.019757,-0.6484 -0.029774,-0.9732 l -11.1012057,-2.1942 c -0.0896,-1.1866 -0.223814,-2.36921 -0.399911,-3.5454 l 10.4313009,-4.59856 c -0.8893057,-4.69133 -2.3254569,-9.25342 -4.2759022,-13.58607 l -10.9967397,2.67685 c -0.533227,-1.05411 -1.105231,-2.08706 -1.713539,-3.09695 l 7.704113,-8.56006 c -2.640113,-3.91975 -5.729562,-7.49291 -9.200397,-10.64107 l -9.049038,7.11231 c -0.89432,-0.74211 -1.814767,-1.44926 -2.759937,-2.12012 l 3.688825,-11.07119 c -3.942307,-2.47615 -8.159826,-4.44737 -12.560132,-5.87017 l -5.50904,10.34892 c -1.105387,-0.29216 -2.220996,-0.54218 -3.344337,-0.74892 l -0.973861,-11.72352 c -2.285457,-0.30501 -4.586627,-0.4664 -6.890869,-0.48322 z m 0,39.07994 c 10.65202,0 19.287179,8.9518 19.287232,19.99451 -5.3e-5,11.0426 -8.635212,19.9944 -19.287232,19.9944 -10.651978,0 -19.287092,-8.9518 -19.287144,-19.9944 5.2e-5,-11.04271 8.635166,-19.99451 19.287144,-19.99451 z"
				  id="path2069"
				  inkscape:connector-curvature="0"
				  sodipodi:nodetypes="cccccccccccccccccccccccccccccccccccccccccccccccccccccccccccccccccccccc" />
		</g>
		<path style="opacity:1;fill:#525252;fill-opacity:1;stroke:none;stroke-width:0.86500001;stroke-linecap:square;stroke-linejoin:miter;stroke-miterlimit:4;stroke-dasharray:none;stroke-opacity:1"
			  d="m 2773.6778,795.23546 c -10.344,0.082 -20.6723,0.8406 -30.9274,2.2014 l -4.2874,50.5184 c -5.0675,0.943 -10.0984,2.0695 -15.0818,3.3919 l -24.5468,-44.6218 c -19.7734,6.0874 -38.7358,14.5582 -56.4722,25.2255 l 16.5878,48.1202 c -4.3008,2.8455 -8.4926,5.8482 -12.5683,9.0075 l -40.2988,-30.6601 c -15.636,13.5636 -29.5717,28.9781 -41.5014,45.9065 l 34.7796,37.3979 c -2.7616,4.3326 -5.3653,8.7666 -7.7989,13.2941 l -49.3207,-11.6055 c -8.7852,18.7556 -15.2672,38.5114 -19.3034,58.83184 l 46.9597,20.0279 c -0.7317,5.0739 -1.2761,10.1741 -1.6285,15.2881 l -49.9435,9.5571 c -0.089,1.4117 -0.1336,2.8242 -0.222,4.2367 0.088,19.3167 2.3913,38.5589 6.817,57.3606 l 50.5323,-0.8745 c 1.441,4.9585 3.0649,9.8602 4.8734,14.6969 l -41.5747,28.9614 c 8.0887,19.0791 18.4587,37.103 30.8826,53.6767 l 45.9791,-21.4559 c 3.2524,4.0065 6.6588,7.8924 10.2043,11.6447 l -26.0896,43.1937 c 15.0808,14.1748 31.8224,26.4642 49.8572,36.5967 l 33.423,-38.4843 c 4.5857,2.2907 9.256,4.4105 14,6.3534 l -6.2652,50.2965 c 19.5401,6.7734 39.8286,11.1452 60.4199,13.0195 l 14.8451,-48.7094 c 5.278,0.467 10.4751,0.3859 15.3869,0.1298 l 14.7617,48.5517 c 20.5983,-1.8684 40.8944,-6.2352 60.4425,-13.0073 l -6.2462,-50.1969 c 4.7776,-1.9324 9.4815,-4.0407 14.1013,-6.326 l 33.1419,38.242 c 18.0964,-10.0415 34.9098,-22.2476 50.07,-36.3501 l -26.2195,-43.5035 c 3.6228,-3.6605 7.108,-7.4597 10.4475,-11.3833 l 45.7395,21.3813 c 12.504,-16.4982 22.9639,-34.4558 31.151,-53.4785 l -41.8259,-29.2038 c 1.7846,-4.8077 3.3907,-9.6821 4.8115,-14.6102 l 50.7261,0.8532 c 4.399,-18.803 6.6597,-38.0443 6.7422,-57.3571 -0.032,-1.4073 -0.089,-2.8111 -0.1336,-4.2193 l -49.7871,-9.5129 c -0.4019,-5.1445 -1.0038,-10.2717 -1.7935,-15.371 l 46.7827,-19.937 c -3.9884,-20.33924 -10.4293,-40.11814 -19.1768,-58.90224 l -49.3186,11.6054 c -2.3915,-4.57 -4.9568,-9.0484 -7.6849,-13.4267 l 34.5517,-37.112 c -11.8405,-16.9941 -25.6962,-32.4854 -41.2624,-46.1342 l -40.5835,30.8353 c -4.0109,-3.2174 -8.1389,-6.2833 -12.3779,-9.1917 l 16.5438,-47.999 c -17.6806,-10.7349 -36.5955,-19.2811 -56.3302,-25.4496 l -24.7072,44.8676 c -4.9575,-1.2667 -9.9608,-2.3506 -14.9988,-3.2469 l -4.3676,-50.8272 c -10.2499,-1.3224 -20.5703,-2.022 -30.9044,-2.095 z m 0,169.4304 c 47.7726,0 86.4999,38.81044 86.5002,86.68594 -3e-4,47.875 -38.7276,86.6853 -86.5002,86.6853 -47.7725,0 -86.4996,-38.8103 -86.4998,-86.6853 2e-4,-47.8755 38.7273,-86.68594 86.4998,-86.68594 z"
			  id="path7535"
			  inkscape:connector-curvature="0"
			  sodipodi:nodetypes="cccccccccccccccccccccccccccccccccccccccccccccccccccccccccccccccccccccc" />
		<path style="opacity:1;fill:none;fill-opacity:1;stroke:#000000;stroke-width:5;stroke-linecap:round;stroke-linejoin:round;stroke-miterlimit:4;stroke-dasharray:none;stroke-opacity:1"
			  d="m 2527.3732,1428.4222 h 492.5961 V 1539.18 h -492.5961 z"
			  id="rect2063-7"
			  inkscape:connector-curvature="0"
			  sodipodi:nodetypes="ccccc" />
		<path id="path2049-3"
			  d="m 3491.7242,385.95545 v 489.37251 c 163.8703,-145.3321 255.5286,-213.3146 256,-511.99993 z"
			  style="opacity:1;fill:#a9c1e7;fill-opacity:1;stroke:none;stroke-width:0.13753615;stroke-miterlimit:4;stroke-dasharray:none;stroke-opacity:1"
			  inkscape:connector-curvature="0"
			  sodipodi:nodetypes="cccc" />
		<path id="path2051-8"
			  d="m 3235.7242,363.32803 c 0.4714,298.68533 92.1298,366.66783 256,511.99993 V 385.95545 Z"
			  style="opacity:1;fill:#3b74c9;fill-opacity:1;stroke:none;stroke-width:0.13753615;stroke-miterlimit:4;stroke-dasharray:none;stroke-opacity:1"
			  inkscape:connector-curvature="0"
			  sodipodi:nodetypes="cccc" />
		<path id="path2055-1"
			  d="m 3491.7242,408.8119 v 443.65966 c 149.239,-132.3561 232.7133,-194.2701 233.1425,-466.28708 z"
			  style="opacity:1;fill:#285aa0;fill-opacity:1;stroke:none;stroke-width:0.12525612;stroke-miterlimit:4;stroke-dasharray:none;stroke-opacity:1"
			  inkscape:connector-curvature="0"
			  sodipodi:nodetypes="cccc" />
		<path id="path2057-4"
			  d="m 3258.5816,386.18448 c 0.4294,272.01698 83.9037,333.93098 233.1426,466.28708 V 408.8119 Z"
			  style="opacity:1;fill:#002964;fill-opacity:1;stroke:none;stroke-width:0.12525612;stroke-miterlimit:4;stroke-dasharray:none;stroke-opacity:1"
			  inkscape:connector-curvature="0"
			  sodipodi:nodetypes="cccc" />
		<path sodipodi:nodetypes="cccccccccccccccccccccccccccccccccccccccccccccccccccccccccccccccccccccc"
			  inkscape:connector-curvature="0"
			  id="path2069-5"
			  d="m 2060.9139,778.26496 c -10.0208,0.082 -20.0265,0.8406 -29.9612,2.2015 l -4.1535,50.5181 c -4.9092,0.9431 -9.783,2.0696 -14.6107,3.3919 l -23.7801,-44.6216 c -19.1557,6.0874 -37.5258,14.5582 -54.7082,25.2255 l 16.0697,48.12 c -4.1665,2.8455 -8.2273,5.8482 -12.1757,9.0074 l -39.0399,-30.6599 c -15.1476,13.5636 -28.648,28.978 -40.2051,45.9064 l 33.6932,37.3978 c -2.6753,4.3325 -5.1977,8.7665 -7.5553,13.294 l -47.78,-11.6055 c -8.5108,18.7555 -14.7904,38.5113 -18.7005,58.8316 l 45.4928,20.02794 c -0.7088,5.0739 -1.2361,10.1741 -1.5776,15.2881 l -48.3834,9.5571 c -0.086,1.4116 -0.1295,2.8241 -0.2151,4.2366 0.086,19.3167 2.3166,38.5588 6.6041,57.3604 l 48.9538,-0.8744 c 1.396,4.9585 2.9692,9.8601 4.7212,14.6968 l -40.276,28.9613 c 7.8359,19.0791 17.882,37.103 29.9179,53.6766 l 44.5428,-21.4558 c 3.1508,4.0064 6.4508,7.8923 9.8856,11.6446 l -25.2747,43.1936 c 14.6098,14.1748 30.8284,26.4641 48.2998,36.5966 l 32.379,-38.4843 c 4.4425,2.2908 8.9669,4.4105 13.5627,6.3535 l -6.0695,50.2964 c 18.9297,6.7733 38.5844,11.1451 58.5325,13.0194 l 14.3815,-48.7092 c 5.1131,0.467 10.1479,0.3859 14.9062,0.1298 l 14.3006,48.5515 c 19.9549,-1.8684 39.617,-6.2352 58.5544,-13.0072 l -6.0511,-50.1969 c 4.6284,-1.9323 9.1853,-4.0406 13.6608,-6.3259 l 32.1067,38.2419 c 17.5311,-10.0415 33.8193,-22.2475 48.5059,-36.35 l -25.4005,-43.5034 c 3.5098,-3.6605 6.886,-7.4596 10.1212,-11.3832 l 44.3107,21.3812 c 12.1135,-16.4982 22.2467,-34.4557 30.178,-53.4784 l -40.5194,-29.2037 c 1.7289,-4.8076 3.2848,-9.682 4.6612,-14.6102 l 49.1416,0.8533 c 4.2616,-18.8029 6.4517,-38.0442 6.5316,-57.357 -0.031,-1.4073 -0.086,-2.8111 -0.1294,-4.2193 l -48.232,-9.5129 c -0.3893,-5.1444 -0.9724,-10.2716 -1.7375,-15.3709 l 45.3214,-19.93704 c -3.8638,-20.3391 -10.1035,-40.1179 -18.5777,-58.902 l -47.7781,11.6054 c -2.3167,-4.57 -4.8019,-9.0484 -7.4449,-13.4267 l 33.4725,-37.1119 c -11.4707,-16.994 -24.8936,-32.4853 -39.9735,-46.1341 l -39.3158,30.8352 c -3.8856,-3.2173 -7.8847,-6.2832 -11.9912,-9.1916 l 16.0269,-47.9989 c -17.1282,-10.7348 -35.4523,-19.281 -54.5705,-25.4495 l -23.9354,44.8675 c -4.8027,-1.2667 -9.6497,-2.3507 -14.5303,-3.247 l -4.2312,-50.827 c -9.9297,-1.3223 -19.9277,-2.022 -29.939,-2.095 z m 0,169.43 c 46.2804,0 83.798,38.8102 83.7982,86.68564 -2e-4,47.8749 -37.5178,86.6851 -83.7982,86.6851 -46.2801,0 -83.7975,-38.8102 -83.7978,-86.6851 3e-4,-47.87544 37.5177,-86.68564 83.7978,-86.68564 z"
			  style="opacity:1;fill:#000000;fill-opacity:1;stroke:#dbdee3;stroke-width:0.86500001;stroke-linecap:square;stroke-linejoin:miter;stroke-miterlimit:4;stroke-dasharray:none;stroke-opacity:1" />
		<path style="opacity:1;fill:#d0a600;fill-opacity:1;stroke:#e6e6e6;stroke-width:12.38204575;stroke-linecap:square;stroke-linejoin:miter;stroke-miterlimit:4;stroke-dasharray:none;stroke-opacity:1"
			  d="m 780.30182,1008.8924 c -113.636,-10e-4 -205.7571,92.1201 -205.7559,205.7559 7e-4,113.6346 92.1214,205.7525 205.7559,205.7513 73.7986,-0.107 141.8892,-39.728 178.4433,-103.8377 h 135.69318 l 67.8488,-46.4323 67.8488,46.4323 67.8491,-46.4323 67.8489,46.4323 67.8488,-46.4323 67.8489,46.4323 61.9066,-101.9136 -61.9066,-101.9138 H 958.86042 c -36.5747,-64.1453 -104.7188,-103.7769 -178.5586,-103.8421 z m -92.5515,144.4843 a 61.271564,61.271564 0 0 1 61.2714,61.2716 61.271564,61.271564 0 0 1 -61.2714,61.2716 61.271564,61.271564 0 0 1 -61.2718,-61.2716 61.271564,61.271564 0 0 1 61.2718,-61.2716 z"
			  id="rect1073"
			  inkscape:connector-curvature="0" />
		<g id="g6209"
		   transform="matrix(1.0820139,0,0,1.0825894,2705.7793,-243.76319)"
		   style="stroke-width:0.92395687">
			<path style="color:#000000;font-style:normal;font-variant:normal;font-weight:normal;font-stretch:normal;font-size:medium;line-height:normal;font-family:sans-serif;font-variant-ligatures:normal;font-variant-position:normal;font-variant-caps:normal;font-variant-numeric:normal;font-variant-alternates:normal;font-feature-settings:normal;text-indent:0;text-align:start;text-decoration:none;text-decoration-line:none;text-decoration-style:solid;text-decoration-color:#000000;letter-spacing:normal;word-spacing:normal;text-transform:none;writing-mode:lr-tb;direction:ltr;text-orientation:mixed;dominant-baseline:auto;baseline-shift:baseline;text-anchor:start;white-space:normal;shape-padding:0;clip-rule:nonzero;display:inline;overflow:visible;visibility:visible;opacity:1;isolation:auto;mix-blend-mode:normal;color-interpolation:sRGB;color-interpolation-filters:linearRGB;solid-color:#000000;solid-opacity:1;vector-effect:none;fill:#dbdee3;fill-opacity:1;fill-rule:nonzero;stroke:#dbdee3;stroke-width:1.18951917;stroke-linecap:butt;stroke-linejoin:miter;stroke-miterlimit:4;stroke-dasharray:none;stroke-dashoffset:0;stroke-opacity:1;color-rendering:auto;image-rendering:auto;shape-rendering:auto;text-rendering:auto;enable-background:accumulate"
				  d="m -191.95269,1131.0191 v 129.5429 c 169.799029,0 339.59812,0 509.39722,0 v -129.5429 c -169.7991,0 -339.598191,0 -509.39722,0 z m 500.36316,9.3926 v 110.7578 c -163.77636,0 -327.552712,0 -491.32903,0 v -110.7578 c 163.776318,0 327.55267,0 491.32903,0 z"
				  id="path6187"
				  inkscape:connector-curvature="0"
				  sodipodi:nodetypes="cccccccccc" />
			<path style="opacity:1;fill:#1c2224;fill-opacity:1;stroke:#37c8ab;stroke-width:0;stroke-linecap:round;stroke-linejoin:round;stroke-miterlimit:4;stroke-dasharray:none;stroke-opacity:1"
				  d="m -182.9185,1140.4117 h 491.32905 v 110.7578 H -182.9185 Z"
				  id="path6185"
				  inkscape:connector-curvature="0"
				  sodipodi:nodetypes="ccccc" />
			<path id="path6189"
				  d="m -130.2181,1162.012 v 21.725 l -15.98602,-12.7694 c -2.18913,3.3123 -4.37825,6.6246 -6.56738,9.9369 l 18.63584,14.8861 -18.63584,14.886 6.56738,9.9367 15.98602,-12.7691 v 21.7248 h 11.17234 v -21.7258 l 15.98678,12.7701 6.566693,-9.9367 -18.635893,-14.886 18.635893,-14.8861 -6.566693,-9.9369 -15.98678,12.7702 v -21.7258 z"
				  style="opacity:1;fill:#37c8ab;fill-opacity:1;stroke:none;stroke-width:0.29790413;stroke-miterlimit:4;stroke-dasharray:none;stroke-opacity:1"
				  inkscape:connector-curvature="0" />
			<path inkscape:connector-curvature="0"
				  style="opacity:1;fill:#37c8ab;fill-opacity:1;stroke:none;stroke-width:0.29790413;stroke-miterlimit:4;stroke-dasharray:none;stroke-opacity:1"
				  d="m -56.253132,1162.012 v 21.725 l -15.986025,-12.7694 c -2.189127,3.3123 -4.378253,6.6246 -6.56738,9.9369 l 18.63584,14.8861 -18.63584,14.886 c 2.189127,3.3123 4.378253,6.6245 6.56738,9.9367 l 15.986025,-12.7691 v 21.7248 h 11.172338 v -21.7258 c 5.328927,4.2567 10.657854,8.5135 15.986781,12.7701 l 6.566691,-9.9367 c -6.211964,-4.962 -12.423927,-9.924 -18.635891,-14.886 6.211964,-4.9621 12.423927,-9.9241 18.635891,-14.8861 l -6.566691,-9.9369 c -5.328927,4.2567 -10.657854,8.5134 -15.986781,12.7702 v -21.7258 z"
				  id="path6191" />
			<path id="path6193"
				  d="m 17.711835,1162.012 v 21.725 c -5.328674,-4.2565 -10.6573477,-8.513 -15.9860215,-12.7694 -2.189127,3.3123 -4.378254,6.6246 -6.567381,9.9369 6.2119472,4.962 12.4238943,9.924 18.6358415,14.8861 -6.2119472,4.962 -12.4238943,9.924 -18.6358415,14.886 2.189127,3.3123 4.378254,6.6245 6.567381,9.9367 5.3286738,-4.2564 10.6573475,-8.5128 15.9860215,-12.7691 v 21.7248 h 11.172338 v -21.7258 c 5.328927,4.2567 10.657853,8.5135 15.98678,12.7701 2.188897,-3.3122 4.377795,-6.6244 6.566692,-9.9367 l -18.635892,-14.886 18.635892,-14.8861 c -2.188897,-3.3123 -4.377795,-6.6246 -6.566692,-9.9369 -5.328927,4.2567 -10.657853,8.5134 -15.98678,12.7702 v -21.7258 z"
				  style="opacity:1;fill:#37c8ab;fill-opacity:1;stroke:none;stroke-width:0.29790413;stroke-miterlimit:4;stroke-dasharray:none;stroke-opacity:1"
				  inkscape:connector-curvature="0" />
			<path inkscape:connector-curvature="0"
				  style="opacity:1;fill:#37c8ab;fill-opacity:1;stroke:none;stroke-width:0.29790413;stroke-miterlimit:4;stroke-dasharray:none;stroke-opacity:1"
				  d="m 91.676751,1162.012 v 21.725 l -15.986021,-12.7694 -6.56738,9.9369 18.635841,14.8861 -18.635841,14.886 6.56738,9.9367 15.986021,-12.7691 v 21.7248 h 11.172339 v -21.7258 l 15.98678,12.7701 6.56669,-9.9367 -18.63589,-14.886 18.63589,-14.8861 -6.56669,-9.9369 -15.98678,12.7702 v -21.7258 z"
				  id="path6195" />
			<path id="path6197"
				  d="m 165.64174,1162.012 v 21.725 l -15.98602,-12.7694 -6.56738,9.9369 18.63584,14.8861 -18.63584,14.886 6.56738,9.9367 15.98602,-12.7691 v 21.7248 h 11.17234 v -21.7258 l 15.98678,12.7701 6.5667,-9.9367 -18.6359,-14.886 18.6359,-14.8861 -6.5667,-9.9369 -15.98678,12.7702 v -21.7258 z"
				  style="opacity:1;fill:#37c8ab;fill-opacity:1;stroke:none;stroke-width:0.29790413;stroke-miterlimit:4;stroke-dasharray:none;stroke-opacity:1"
				  inkscape:connector-curvature="0" />
			<path inkscape:connector-curvature="0"
				  style="opacity:1;fill:#37c8ab;fill-opacity:1;stroke:none;stroke-width:0.29790413;stroke-miterlimit:4;stroke-dasharray:none;stroke-opacity:1"
				  d="m 244.73766,1162.0118 v 21.725 l -15.98602,-12.7694 -6.56738,9.9369 18.63584,14.8861 -18.63584,14.8861 6.56738,9.9368 15.98602,-12.7693 v 21.725 H 255.91 v -21.7258 l 15.98678,12.7701 6.56669,-9.9368 -18.63589,-14.8861 18.63589,-14.8861 -6.56669,-9.9369 -15.98678,12.7702 v -21.7258 z"
				  id="path6199" />
		</g>
		<path sodipodi:nodetypes="ccccc"
			  inkscape:connector-curvature="0"
			  id="path6503"
			  d="m 2549.6952,186.849 h 491.329 v 110.75782 h -491.329 z"
			  style="opacity:1;fill:#1c2224;fill-opacity:1;stroke:#37c8ab;stroke-width:0;stroke-linecap:round;stroke-linejoin:round;stroke-miterlimit:4;stroke-dasharray:none;stroke-opacity:1" />
		<path sodipodi:nodetypes="cccccccccc"
			  inkscape:connector-curvature="0"
			  id="path6505"
			  d="m 2540.661,177.45644 v 129.54295 c 169.799,0 339.5981,0 509.3972,0 V 177.45644 c -169.7991,0 -339.5982,0 -509.3972,0 z m 500.3631,9.39257 v 110.75781 c -163.7763,0 -327.5527,0 -491.329,0 V 186.84901 c 163.7763,0 327.5527,0 491.329,0 z"
			  style="color:#000000;font-style:normal;font-variant:normal;font-weight:normal;font-stretch:normal;font-size:medium;line-height:normal;font-family:sans-serif;font-variant-ligatures:normal;font-variant-position:normal;font-variant-caps:normal;font-variant-numeric:normal;font-variant-alternates:normal;font-feature-settings:normal;text-indent:0;text-align:start;text-decoration:none;text-decoration-line:none;text-decoration-style:solid;text-decoration-color:#000000;letter-spacing:normal;word-spacing:normal;text-transform:none;writing-mode:lr-tb;direction:ltr;text-orientation:mixed;dominant-baseline:auto;baseline-shift:baseline;text-anchor:start;white-space:normal;shape-padding:0;clip-rule:nonzero;display:inline;overflow:visible;visibility:visible;opacity:1;isolation:auto;mix-blend-mode:normal;color-interpolation:sRGB;color-interpolation-filters:linearRGB;solid-color:#000000;solid-opacity:1;vector-effect:none;fill:#dbdee3;fill-opacity:1;fill-rule:nonzero;stroke:#dbdee3;stroke-width:1.28741848;stroke-linecap:butt;stroke-linejoin:miter;stroke-miterlimit:4;stroke-dasharray:none;stroke-dashoffset:0;stroke-opacity:1;color-rendering:auto;image-rendering:auto;shape-rendering:auto;text-rendering:auto;enable-background:accumulate" />
		<path inkscape:connector-curvature="0"
			  style="opacity:1;fill:#37c8ab;fill-opacity:1;stroke:none;stroke-width:0.32242212;stroke-miterlimit:4;stroke-dasharray:none;stroke-opacity:1"
			  d="m 2602.3956,208.44932 v 21.725 l -15.9861,-12.7694 -6.5673,9.9369 18.6358,14.8861 -18.6358,14.8861 6.5673,9.9368 15.9861,-12.7693 v 21.725 h 11.1723 v -21.7258 l 15.9868,12.7701 6.5667,-9.9368 -18.6359,-14.8861 18.6359,-14.8861 -6.5667,-9.9369 -15.9868,12.7702 v -21.7258 z"
			  id="path6507" />
		<path id="path6509"
			  d="m 2676.3605,208.44932 v 21.725 l -15.986,-12.7694 -6.5674,9.9369 18.6359,14.8861 -18.6359,14.8861 6.5674,9.9368 15.986,-12.7693 v 21.725 h 11.1724 v -21.7258 l 15.9867,12.7701 6.5667,-9.9368 -18.6359,-14.8861 18.6359,-14.8861 -6.5667,-9.9369 -15.9867,12.7702 v -21.7258 z"
			  style="opacity:1;fill:#37c8ab;fill-opacity:1;stroke:none;stroke-width:0.32242212;stroke-miterlimit:4;stroke-dasharray:none;stroke-opacity:1"
			  inkscape:connector-curvature="0" />
		<path inkscape:connector-curvature="0"
			  style="opacity:1;fill:#37c8ab;fill-opacity:1;stroke:none;stroke-width:0.32242212;stroke-miterlimit:4;stroke-dasharray:none;stroke-opacity:1"
			  d="m 2750.3255,208.44932 v 21.725 l -15.986,-12.7694 -6.5674,9.9369 18.6358,14.8861 -18.6358,14.8861 6.5674,9.9368 15.986,-12.7693 v 21.725 h 11.1723 v -21.7258 l 15.9868,12.7701 6.5667,-9.9368 -18.6359,-14.8861 18.6359,-14.8861 -6.5667,-9.9369 -15.9868,12.7702 v -21.7258 z"
			  id="path6511" />
		<path id="path6513"
			  d="m 2824.2904,208.44932 v 21.725 l -15.986,-12.7694 -6.5674,9.9369 18.6359,14.8861 -18.6359,14.8861 6.5674,9.9368 15.986,-12.7693 v 21.725 h 11.1723 v -21.7258 l 15.9868,12.7701 6.5667,-9.9368 -18.6359,-14.8861 18.6359,-14.8861 -6.5667,-9.9369 -15.9868,12.7702 v -21.7258 z"
			  style="opacity:1;fill:#37c8ab;fill-opacity:1;stroke:none;stroke-width:0.32242212;stroke-miterlimit:4;stroke-dasharray:none;stroke-opacity:1"
			  inkscape:connector-curvature="0" />
		<path inkscape:connector-curvature="0"
			  style="opacity:1;fill:#37c8ab;fill-opacity:1;stroke:none;stroke-width:0.32242212;stroke-miterlimit:4;stroke-dasharray:none;stroke-opacity:1"
			  d="m 2898.2554,208.44932 v 21.725 l -15.986,-12.7694 -6.5674,9.9369 18.6358,14.8861 -18.6358,14.8861 6.5674,9.9368 15.986,-12.7693 v 21.725 h 11.1723 v -21.7258 l 15.9868,12.7701 6.5667,-9.9368 -18.6359,-14.8861 18.6359,-14.8861 -6.5667,-9.9369 -15.9868,12.7702 v -21.7258 z"
			  id="path6515" />
		<path id="path6517"
			  d="m 2977.1513,208.44932 v 21.725 l -15.986,-12.7694 -6.5674,9.9369 18.6359,14.8861 -18.6359,14.8861 6.5674,9.9368 15.986,-12.7693 v 21.725 h 11.1724 v -21.7258 l 15.9867,12.7701 6.5667,-9.9368 -18.6359,-14.8861 18.6359,-14.8861 -6.5667,-9.9369 -15.9867,12.7702 v -21.7258 z"
			  style="opacity:1;fill:#37c8ab;fill-opacity:1;stroke:none;stroke-width:0.32242212;stroke-miterlimit:4;stroke-dasharray:none;stroke-opacity:1"
			  inkscape:connector-curvature="0" />
		<path inkscape:connector-curvature="0"
			  id="path6533"
			  d="m 1837.867,90.955235 h 511.135 V 602.09036 h -511.135 z"
			  style="opacity:1;fill:#204880;fill-opacity:1;stroke:#101215;stroke-width:0.86500001;stroke-linecap:square;stroke-linejoin:miter;stroke-miterlimit:4;stroke-dasharray:none;stroke-opacity:1" />
		<path style="opacity:1;fill:url(#linearGradient6547);fill-opacity:1;stroke:#dbdee3;stroke-width:0.86500001;stroke-linecap:square;stroke-linejoin:miter;stroke-miterlimit:4;stroke-dasharray:none;stroke-opacity:1"
			  d="m 2093.4409,90.957165 c -10.0209,0.082 -20.0265,0.84064 -29.9613,2.20147 l -4.1535,50.518175 c -4.9092,0.94301 -9.783,2.06953 -14.6107,3.3919 l -23.7801,-44.62163 c -19.1557,6.08739 -37.5258,14.55816 -54.7081,25.22545 l 16.0697,48.12006 c -4.1665,2.84548 -8.2274,5.84819 -12.1758,9.00741 l -39.0399,-30.65994 c -15.1476,13.56358 -28.648,28.97796 -40.2051,45.90637 l 33.6932,37.39781 c -2.6753,4.33251 -5.1977,8.76655 -7.5553,13.29401 l -47.78,-11.60547 c -8.5108,18.75552 -14.7903,38.51133 -18.7005,58.83162 l 45.4928,20.02784 c -0.7088,5.07392 -1.2361,10.17414 -1.5776,15.2881 l -48.3834,9.5571 c -0.086,1.41162 -0.1295,2.82412 -0.2151,4.23661 0.086,19.3167 2.3166,38.55883 6.6041,57.36047 l 48.9538,-0.87448 c 1.396,4.9585 2.9692,9.86018 4.7212,14.69683 l -40.276,28.96136 c 7.836,19.07906 17.882,37.10292 29.9179,53.67653 l 44.5428,-21.45579 c 3.1509,4.00642 6.4508,7.89229 9.8856,11.64459 l -25.2747,43.1936 c 14.6098,14.1749 30.8284,26.4642 48.2998,36.5967 l 32.379,-38.4843 c 4.4425,2.2907 8.9669,4.4105 13.5627,6.3534 l -6.0695,50.2965 c 18.9298,6.7733 38.5844,11.1451 58.5325,13.0194 l 14.3815,-48.7092 c 5.1131,0.467 10.1479,0.3859 14.9062,0.1298 l 14.3006,48.5515 c 19.9549,-1.8684 39.617,-6.2352 58.5544,-13.0072 l -6.0511,-50.1969 c 4.6284,-1.9324 9.1853,-4.0407 13.6608,-6.326 l 32.1067,38.242 c 17.5311,-10.0415 33.8193,-22.2475 48.5059,-36.3501 l -25.4005,-43.5034 c 3.5098,-3.66045 6.886,-7.45962 10.1212,-11.38321 l 44.3107,21.38121 c 12.1135,-16.49817 22.2467,-34.45569 30.178,-53.47837 l -40.5193,-29.20373 c 1.7288,-4.80761 3.2847,-9.68199 4.6612,-14.61013 l 49.1415,0.85324 c 4.2616,-18.80293 6.4517,-38.0442 6.5316,-57.35699 -0.031,-1.40729 -0.086,-2.81112 -0.1294,-4.21927 l -48.232,-9.5129 c -0.3893,-5.14446 -0.9724,-10.27164 -1.7375,-15.37097 l 45.3214,-19.93693 c -3.8638,-20.33914 -10.1035,-40.11795 -18.5777,-58.90203 l -47.7781,11.60541 c -2.3167,-4.57006 -4.8019,-9.04838 -7.4449,-13.42674 l 33.4725,-37.11188 c -11.4707,-16.99398 -24.8936,-32.48532 -39.9735,-46.13408 l -39.3158,30.83522 c -3.8856,-3.21738 -7.8847,-6.28321 -11.9912,-9.19169 l 16.027,-47.99884 c -17.1283,-10.73483 -35.4524,-19.28099 -54.5706,-25.44951 l -23.9354,44.86746 c -4.8026,-1.26667 -9.6497,-2.35062 -14.5303,-3.24692 l -4.2312,-50.827005 c -9.9297,-1.32236 -19.9277,-2.02205 -29.939,-2.09499 z m 0,169.429965 c 46.2803,0 83.7979,38.81028 83.7981,86.68562 -2e-4,47.87489 -37.5178,86.68515 -83.7981,86.68515 -46.2802,0 -83.7976,-38.81026 -83.7979,-86.68515 3e-4,-47.87534 37.5177,-86.68562 83.7979,-86.68562 z"
			  id="path6535"
			  inkscape:connector-curvature="0"
			  sodipodi:nodetypes="cccccccccccccccccccccccccccccccccccccccccccccccccccccccccccccccccccccc" />
		<g transform="translate(2072.6535,-65.443135)"
		   id="g6545">
			<g id="g6541"
			   transform="matrix(1.0025789,0,0,1,0.60494951,0)"
			   style="stroke-width:0.99871302">
				<path sodipodi:nodetypes="ccccc"
					  inkscape:connector-curvature="0"
					  id="path6537"
					  d="M -225.54026,356.58698 H 265.78879 V 467.3448 h -491.32905 z"
					  style="opacity:1;fill:#1c2224;fill-opacity:1;stroke:#37c8ab;stroke-width:0;stroke-linecap:round;stroke-linejoin:round;stroke-miterlimit:4;stroke-dasharray:none;stroke-opacity:1" />
				<path sodipodi:nodetypes="cccccccccc"
					  inkscape:connector-curvature="0"
					  id="path6539"
					  d="m -234.57445,347.19442 v 129.54295 c 169.799026,0 339.59812,0 509.39722,0 V 347.19442 c -169.7991,0 -339.598194,0 -509.39722,0 z m 500.36316,9.39257 V 467.3448 c -163.77636,0 -327.552715,0 -491.32903,0 V 356.58699 c 163.776315,0 327.55267,0 491.32903,0 z"
					  style="color:#000000;font-style:normal;font-variant:normal;font-weight:normal;font-stretch:normal;font-size:medium;line-height:normal;font-family:sans-serif;font-variant-ligatures:normal;font-variant-position:normal;font-variant-caps:normal;font-variant-numeric:normal;font-variant-alternates:normal;font-feature-settings:normal;text-indent:0;text-align:start;text-decoration:none;text-decoration-line:none;text-decoration-style:solid;text-decoration-color:#000000;letter-spacing:normal;word-spacing:normal;text-transform:none;writing-mode:lr-tb;direction:ltr;text-orientation:mixed;dominant-baseline:auto;baseline-shift:baseline;text-anchor:start;white-space:normal;shape-padding:0;clip-rule:nonzero;display:inline;overflow:visible;visibility:visible;opacity:1;isolation:auto;mix-blend-mode:normal;color-interpolation:sRGB;color-interpolation-filters:linearRGB;solid-color:#000000;solid-opacity:1;vector-effect:none;fill:#dbdee3;fill-opacity:1;fill-rule:nonzero;stroke:#dbdee3;stroke-width:1.28576171;stroke-linecap:butt;stroke-linejoin:miter;stroke-miterlimit:4;stroke-dasharray:none;stroke-dashoffset:0;stroke-opacity:1;color-rendering:auto;image-rendering:auto;shape-rendering:auto;text-rendering:auto;enable-background:accumulate" />
			</g>
			<path style="opacity:1;fill:#37c8ab;fill-opacity:1;stroke:none;stroke-width:0.32242212;stroke-miterlimit:4;stroke-dasharray:none;stroke-opacity:1"
				  d="m -168.91986,370.22473 v 26.84756 l -19.75435,-15.77934 -8.11412,12.27738 23.02703,18.39556 -23.02703,18.39555 8.11412,12.2774 19.75435,-15.77693 v 26.84515 h 13.80511 V 426.8595 l 19.75435,15.77934 8.11413,-12.2774 -23.02703,-18.39555 23.02703,-18.39556 -8.11413,-12.27738 -19.75435,15.77934 v -26.84756 z m 91.398549,0 v 26.84756 l -19.75435,-15.77934 -8.114119,12.27738 23.027023,18.39556 -23.027023,18.39555 8.114119,12.2774 19.75435,-15.77693 v 26.84515 H -63.71619 V 426.8595 l 19.75435,15.77934 8.116539,-12.2774 -23.029443,-18.39555 23.029443,-18.39556 -8.116539,-12.27738 -19.75435,15.77934 v -26.84756 z m 91.398557,0 v 26.84756 l -19.7543494,-15.77934 -8.1141296,12.27738 23.0270337,18.39556 -23.0270337,18.39555 8.1141296,12.2774 19.7543494,-15.77693 v 26.84515 H 27.682355 V 426.8595 l 19.75435,15.77934 8.116539,-12.2774 -23.029443,-18.39555 23.029443,-18.39556 -8.116539,-12.27738 -19.75435,15.77934 v -26.84756 z m 91.398544,0 v 26.84756 l -19.754348,-15.77934 -8.114118,12.27738 23.027016,18.39556 -23.027016,18.39555 8.114118,12.2774 19.754348,-15.77693 v 26.84515 h 13.80512 V 426.8595 l 19.75434,15.77934 8.11654,-12.2774 -23.02945,-18.39555 23.02945,-18.39556 -8.11654,-12.27738 -19.75434,15.77934 v -26.84756 z m 91.39854,0 v 26.84756 L 176.92,381.29295 l -8.11413,12.27738 23.02703,18.39556 -23.02703,18.39555 8.11413,12.2774 19.75433,-15.77693 v 26.84515 h 13.80512 V 426.8595 l 19.75676,15.77934 8.11413,-12.2774 -23.02944,-18.39555 23.02944,-18.39556 -8.11413,-12.27738 -19.75676,15.77934 v -26.84756 z"
				  id="path6543"
				  inkscape:connector-curvature="0" />
		</g>
		<path style="opacity:1;fill:#000000;fill-opacity:1;stroke:#dbdee3;stroke-width:0.86500001;stroke-linecap:square;stroke-linejoin:miter;stroke-miterlimit:4;stroke-dasharray:none;stroke-opacity:1"
			  d="m 967.05192,42.873905 c -10.0209,0.082 -20.0265,0.84064 -29.9613,2.20147 l -4.1535,50.51818 c -4.9092,0.94301 -9.783,2.06953 -14.6107,3.3919 l -23.7801,-44.62163 c -19.1557,6.08739 -37.5258,14.55816 -54.7081,25.22545 l 16.0697,48.120055 c -4.1665,2.84548 -8.2274,5.84819 -12.1758,9.00741 l -39.0399,-30.65994 c -15.1476,13.56358 -28.648,28.97796 -40.2051,45.90637 l 33.6933,37.39781 c -2.6754,4.33251 -5.1977,8.76655 -7.5554,13.29401 l -47.78,-11.60547 c -8.5108,18.75552 -14.7903,38.51133 -18.7005,58.83162 l 45.4928,20.02784 c -0.7087,5.07392 -1.2361,10.17414 -1.5775,15.2881 l -48.3835,9.5571 c -0.086,1.41163 -0.1294,2.82413 -0.2151,4.23662 0.086,19.3167 2.3167,38.55883 6.6041,57.36047 l 48.9538,-0.87448 c 1.396,4.9585 2.9692,9.86018 4.7212,14.69683 l -40.276,28.96136 c 7.836,19.07906 17.882,37.10292 29.9179,53.67654 l 44.5428,-21.4558 c 3.1509,4.00642 6.4508,7.89229 9.8856,11.64464 l -25.2747,43.19356 c 14.6098,14.17484 30.8284,26.46414 48.2998,36.59664 l 32.379,-38.48428 c 4.4425,2.29071 8.9669,4.41049 13.5628,6.35342 l -6.0696,50.29646 c 18.9298,6.7733 38.5845,11.1451 58.5325,13.0194 l 14.3815,-48.7092 c 5.1131,0.467 10.1479,0.3859 14.9062,0.1298 l 14.3006,48.5515 c 19.95488,-1.8684 39.61698,-6.2352 58.55448,-13.0072 l -6.0511,-50.19689 c 4.6283,-1.93235 9.1853,-4.04067 13.6607,-6.32596 l 32.1067,38.24195 c 17.5312,-10.0415 33.8194,-22.2475 48.506,-36.35 l -25.4005,-43.50344 c 3.5097,-3.66046 6.886,-7.45963 10.1212,-11.38322 l 44.3107,21.38125 c 12.1134,-16.49821 22.2466,-34.45573 30.1779,-53.47841 l -40.5193,-29.20373 c 1.7288,-4.80761 3.2847,-9.68199 4.6612,-14.61013 l 49.1415,0.85324 c 4.2616,-18.80293 6.4517,-38.0442 6.5316,-57.35699 -0.031,-1.40729 -0.086,-2.81112 -0.1294,-4.21928 l -48.2319,-9.5129 c -0.3893,-5.14446 -0.9725,-10.27164 -1.7375,-15.37097 l 45.3214,-19.93693 c -3.8639,-20.33914 -10.1036,-40.11795 -18.5778,-58.90203 l -47.7781,11.60541 c -2.3167,-4.57006 -4.8019,-9.04838 -7.4448,-13.42674 l 33.4724,-37.11188 c -11.4706,-16.99398 -24.8935,-32.48532 -39.9734,-46.13408 l -39.3159,30.83522 c -3.8856,-3.21738 -7.8847,-6.28321 -11.9912,-9.19169 l 16.027,-47.998835 c -17.1283,-10.73483 -35.4524,-19.28099 -54.5706,-25.44951 l -23.9354,44.86746 c -4.8026,-1.26667 -9.6497,-2.35062 -14.5303,-3.24692 l -4.23108,-50.82701 c -9.9298,-1.32236 -19.9278,-2.02205 -29.9391,-2.09499 z m 0,169.429965 c 46.28028,0 83.79788,38.81028 83.79808,86.68563 -2e-4,47.87489 -37.5178,86.68515 -83.79808,86.68515 -46.2802,0 -83.7976,-38.81026 -83.7979,-86.68515 3e-4,-47.87535 37.5177,-86.68563 83.7979,-86.68563 z"
			  id="path6612"
			  inkscape:connector-curvature="0"
			  sodipodi:nodetypes="cccccccccccccccccccccccccccccccccccccccccccccccccccccccccccccccccccccc" />
		<path inkscape:connector-curvature="0"
			  style="opacity:1;fill:#a9c1e7;fill-opacity:1;stroke:none;stroke-width:0.13753615;stroke-miterlimit:4;stroke-dasharray:none;stroke-opacity:1"
			  d="m 4113.7242,374.77969 v 511.99997 c 163.8703,-145.3321 255.5286,-213.3146 256,-511.99997 0,0 -84.8122,20.06837 -128,20.06836 -43.1878,0 -128,-20.06836 -128,-20.06836 z"
			  id="path7537" />
		<path inkscape:connector-curvature="0"
			  style="opacity:1;fill:#3b74c9;fill-opacity:1;stroke:none;stroke-width:0.13753615;stroke-miterlimit:4;stroke-dasharray:none;stroke-opacity:1"
			  d="m 3857.7242,374.77969 c 0.4714,298.68537 92.1298,366.66787 256,511.99997 V 374.77969 c 0,0 -84.8121,20.06836 -128,20.06836 -43.1878,0 -128,-20.06836 -128,-20.06836 z"
			  id="path7539" />
		<path inkscape:connector-curvature="0"
			  style="opacity:1;fill:#285aa0;fill-opacity:1;stroke:none;stroke-width:0.12525612;stroke-miterlimit:4;stroke-dasharray:none;stroke-opacity:1"
			  d="m 4113.7242,397.63614 v 466.28712 c 149.239,-132.3561 232.7133,-194.2701 233.1425,-466.28712 0,0 -77.2383,18.27735 -116.5702,18.27735 -39.3318,0 -116.5723,-18.27735 -116.5723,-18.27735 z"
			  id="path7541" />
		<path inkscape:connector-curvature="0"
			  style="opacity:1;fill:#002964;fill-opacity:1;stroke:none;stroke-width:0.12525612;stroke-miterlimit:4;stroke-dasharray:none;stroke-opacity:1"
			  d="m 3880.5816,397.63614 c 0.4294,272.01702 83.9037,333.93102 233.1426,466.28712 V 397.63614 c 0,0 -77.2404,18.27733 -116.5722,18.27735 -39.3319,0 -116.5704,-18.27735 -116.5704,-18.27735 z"
			  id="path7543" />
	</g>
</svg>