<?xml version="1.0" encoding="UTF-8" standalone="no" ?>
<!-- Created with Inkscape (http://www.inkscape.org/) -->

<svg xmlns:dc="http://purl.org/dc/elements/1.1/"
	 xmlns:cc="http://creativecommons.org/ns#"
	 xmlns:rdf="http://www.w3.org/1999/02/22-rdf-syntax-ns#"
	 xmlns:svg="http://www.w3.org/2000/svg"
	 xmlns="http://www.w3.org/2000/svg"
	 xmlns:sodipodi="http://sodipodi.sourceforge.net/DTD/sodipodi-0.dtd"
	 xmlns:inkscape="http://www.inkscape.org/namespaces/inkscape"
	 width="32"
	 height="31.999973"
	 viewBox="0 0 32 31.999974"
	 version="1.1"
	 id="svg1592"
	 inkscape:version="0.92.4 (5da689c313, 2019-01-14)"
	 sodipodi:docname="AppIcon_v4_32.svg">
	<defs id="defs1586" />
	<sodipodi:namedview id="base"
						pagecolor="#ffffff"
						bordercolor="#666666"
						borderopacity="1.0"
						inkscape:pageopacity="0.0"
						inkscape:pageshadow="2"
						inkscape:zoom="1.4"
						inkscape:cx="-39.73993"
						inkscape:cy="-49.601228"
						inkscape:document-units="px"
						inkscape:current-layer="layer1"
						showgrid="false"
						units="px"
						fit-margin-top="0"
						fit-margin-left="0"
						fit-margin-right="0"
						fit-margin-bottom="0"
						inkscape:window-width="1920"
						inkscape:window-height="1057"
						inkscape:window-x="-8"
						inkscape:window-y="-8"
						inkscape:window-maximized="1" />
	<metadata id="metadata1589">
		<rdf:RDF>
			<cc:Work rdf:about="">
				<dc:format>image/svg+xml</dc:format>
				<dc:type rdf:resource="http://purl.org/dc/dcmitype/StillImage" />
				<dc:title></dc:title>
			</cc:Work>
		</rdf:RDF>
	</metadata>
	<g inkscape:label="Layer 1"
	   inkscape:groupmode="layer"
	   id="layer1"
	   transform="translate(878.74565,-296.17413)">
		<path style="opacity:1;fill:#000000;fill-opacity:1;stroke:none;stroke-width:0.18305719;stroke-miterlimit:4;stroke-dasharray:none"
			  d="m -878.74563,300.69174 h 15.99999 15.99999 v 13.74118 13.74118 h -15.99999 -15.99999 v -13.74118 z"
			  id="rect6355"
			  inkscape:connector-curvature="0"
			  sodipodi:nodetypes="ccccccccc" />
		<path style="opacity:1;fill:#7137c8;fill-opacity:1;stroke:none;stroke-width:0.13902202;stroke-miterlimit:4;stroke-dasharray:none"
			  d="m -878.74565,296.17413 v 4.51761 h 10.66665 10.66667 10.66665 v -4.51761 h -10.66665 -10.66667 z"
			  id="rect6358"
			  inkscape:connector-curvature="0" />
		<path inkscape:connector-curvature="0"
			  style="opacity:1;fill:#2d2d2d;fill-opacity:1;stroke:#ffffff;stroke-width:1;stroke-miterlimit:4;stroke-dasharray:none;stroke-opacity:1"
			  d="m -876.4314,303.72788 h 27.37153 v 10.81853 h -27.37153 z"
			  id="rect4653" />
		<path inkscape:connector-curvature="0"
			  style="opacity:1;fill:#0066ff;fill-opacity:1;stroke:#ffffff;stroke-width:1;stroke-miterlimit:4;stroke-dasharray:none;stroke-opacity:1"
			  d="m -875.71528,317.02938 h 25.93928 c 0.40226,0 0.72609,0.32384 0.72609,0.72609 v 6.66682 c 0,0.40225 -0.32383,0.72609 -0.72609,0.72609 h -25.93928 c -0.40225,0 -0.72609,-0.32384 -0.72609,-0.72609 v -6.66682 c 0,-0.40225 0.32384,-0.72609 0.72609,-0.72609 z"
			  id="rect4655" />
		<path style="opacity:1;fill:#ffffff;fill-opacity:1;stroke:none;stroke-width:1;stroke-miterlimit:4;stroke-dasharray:none;stroke-opacity:1"
			  d="m -872.46835,320.0929 h 2.43068 2.43068 2.43068 2.43068 2.43067 2.43068 2.43068 2.43068 c 0.48968,0 0.88388,0.39421 0.88388,0.88388 0,0.48967 -0.39421,0.88388 -0.88388,0.88388 h -2.43068 -2.43068 -2.43068 -2.43067 -2.43068 -2.43068 -2.43068 -2.43068 c -0.48968,0 -0.88389,-0.39421 -0.88389,-0.88388 0,-0.48967 0.39422,-0.88388 0.88389,-0.88388 z"
			  id="rect859"
			  inkscape:connector-curvature="0"
			  sodipodi:nodetypes="scccccccssscccccccsss" />
		<path sodipodi:nodetypes="scccccccssscccccccsss"
			  inkscape:connector-curvature="0"
			  id="path862"
			  d="m -872.46835,308.25327 h 2.43068 2.43068 2.43068 2.43068 2.43067 2.43068 2.43068 2.43069 c 0.48968,0 0.88387,0.39421 0.88387,0.88388 0,0.48967 -0.39421,0.88387 -0.88387,0.88387 h -2.43069 -2.43068 -2.43068 -2.43067 -2.43068 -2.43068 -2.43068 -2.43068 c -0.48968,0 -0.88389,-0.3942 -0.88389,-0.88387 0,-0.48967 0.39422,-0.88388 0.88389,-0.88388 z"
			  style="opacity:1;fill:#d5ffe6;fill-opacity:1;stroke:none;stroke-width:1;stroke-miterlimit:4;stroke-dasharray:none;stroke-opacity:1" />
	</g>
</svg>