<?xml version="1.0" encoding="UTF-8" standalone="no" ?>
<!-- Created with Inkscape (http://www.inkscape.org/) -->

<svg xmlns:dc="http://purl.org/dc/elements/1.1/"
	 xmlns:cc="http://creativecommons.org/ns#"
	 xmlns:rdf="http://www.w3.org/1999/02/22-rdf-syntax-ns#"
	 xmlns:svg="http://www.w3.org/2000/svg"
	 xmlns="http://www.w3.org/2000/svg"
	 xmlns:sodipodi="http://sodipodi.sourceforge.net/DTD/sodipodi-0.dtd"
	 xmlns:inkscape="http://www.inkscape.org/namespaces/inkscape"
	 width="44"
	 height="43.999962"
	 viewBox="0 0 44 43.999963"
	 version="1.1"
	 id="svg1592"
	 inkscape:version="0.92.4 (5da689c313, 2019-01-14)"
	 sodipodi:docname="AppIcon_v4_44.svg">
	<defs id="defs1586" />
	<sodipodi:namedview id="base"
						pagecolor="#ffffff"
						bordercolor="#666666"
						borderopacity="1.0"
						inkscape:pageopacity="0.0"
						inkscape:pageshadow="2"
						inkscape:zoom="11.2"
						inkscape:cx="24.08724"
						inkscape:cy="18.086608"
						inkscape:document-units="px"
						inkscape:current-layer="layer1"
						showgrid="false"
						units="px"
						fit-margin-top="0"
						fit-margin-left="0"
						fit-margin-right="0"
						fit-margin-bottom="0"
						inkscape:window-width="1920"
						inkscape:window-height="1057"
						inkscape:window-x="-8"
						inkscape:window-y="-8"
						inkscape:window-maximized="1" />
	<metadata id="metadata1589">
		<rdf:RDF>
			<cc:Work rdf:about="">
				<dc:format>image/svg+xml</dc:format>
				<dc:type rdf:resource="http://purl.org/dc/dcmitype/StillImage" />
				<dc:title></dc:title>
			</cc:Work>
		</rdf:RDF>
	</metadata>
	<g inkscape:label="Layer 1"
	   inkscape:groupmode="layer"
	   id="layer1"
	   transform="translate(878.74565,-284.17414)">
		<g id="g1442"
		   transform="matrix(0.0859375,0,0,0.0859375,-803.22845,299.97164)"
		   inkscape:export-xdpi="96"
		   inkscape:export-ydpi="96">
			<path sodipodi:nodetypes="ccccccccc"
				  inkscape:connector-curvature="0"
				  id="rect6355"
				  d="m -878.74525,-111.5437 h 255.9998 255.9998 v 219.8589 219.8589 h -255.9998 -255.9998 V 108.3152 Z"
				  style="opacity:1;fill:#000000;fill-opacity:1;stroke:none;stroke-width:2.92891502;stroke-miterlimit:4;stroke-dasharray:none" />
			<path inkscape:connector-curvature="0"
				  id="rect6358"
				  d="m -878.74565,-183.82547 v 72.28177 h 170.6665 170.6666 170.66647 v -72.28177 h -170.66647 -170.6666 z"
				  style="opacity:1;fill:#7137c8;fill-opacity:1;stroke:none;stroke-width:2.22435236;stroke-miterlimit:4;stroke-dasharray:none" />
			<path id="rect4653"
				  d="m -841.71765,-62.96537 h 437.94454 v 173.09648 h -437.94454 z"
				  style="opacity:1;fill:#2d2d2d;fill-opacity:1;stroke:#ffffff;stroke-width:2.49979424;stroke-miterlimit:4;stroke-dasharray:none;stroke-opacity:1"
				  inkscape:connector-curvature="0" />
			<g id="text4667"
			   style="font-style:normal;font-variant:normal;font-weight:normal;font-stretch:normal;font-size:61.50378799px;line-height:1.25;font-family:'OCR A Extended';-inkscape-font-specification:'OCR A Extended';letter-spacing:0px;word-spacing:0px;fill:#d5ffe6;fill-opacity:1;stroke:none;stroke-width:1.28132892"
			   transform="matrix(1.5609451,0,0,2.7737077,-52.30656,48.908711)"
			   aria-label="*@$758">
				<path id="path2213"
					  style="text-align:center;text-anchor:middle;fill:#d5ffe6;stroke-width:1.28132892"
					  d="m -460.92823,-14.690557 v -7.447724 q 0,-1.021059 0.75078,-1.771838 0.78081,-0.750779 1.8319,-0.750779 1.02106,0 1.77183,0.750779 0.75078,0.750779 0.75078,1.771838 v 7.567849 l 5.88611,-5.045233 q 0.84087,-0.690716 1.92199,-0.690716 1.08112,0 1.77184,0.780809 0.69071,0.750779 0.69071,1.741807 0,1.081121 -0.75077,1.741806 l -8.10841,6.9371952 8.04834,6.9071637 q 0.75078,0.6606852 0.75078,1.71177535 0,1.05109013 -0.72074,1.80186875 -0.72075,0.7507787 -1.77184,0.7507787 -0.99103,0 -1.8319,-0.6907164 l -5.88611,-5.0452326 v 7.5678489 q 0,1.021059 -0.75078,1.7718377 -0.75077,0.7507786 -1.77183,0.7507786 -1.08112,0 -1.8319,-0.7507786 -0.75078,-0.7507787 -0.75078,-1.7718377 v -7.4477243 l -5.79601,4.9851703 q -0.81084,0.6606852 -1.80187,0.6606852 -1.05109,0 -1.80187,-0.7507786 -0.72075,-0.78080982 -0.72075,-1.83189995 0,-1.08112125 0.75078,-1.71177535 l 8.13844,-6.9071637 -8.07838,-6.9371952 q -0.78081,-0.690716 -0.78081,-1.801868 0,-1.021059 0.75078,-1.771838 0.75078,-0.78081 1.77184,-0.78081 1.02106,0 1.8319,0.720748 z"
					  inkscape:connector-curvature="0" />
				<path id="path2215"
					  style="text-align:center;text-anchor:middle;fill:#d5ffe6;stroke-width:1.28132892"
					  d="M -414.28986,3.2080063 V -20.396475 q 0,-1.381433 -1.11116,-2.492585 -1.11115,-1.141184 -2.52261,-1.141184 h -7.74804 q -1.71177,0 -2.49258,0.630654 -0.78081,0.630655 -1.62168,2.192274 -0.81085,1.531589 -2.28237,1.531589 -1.17122,0 -1.89196,-0.720748 -0.69072,-0.720747 -0.69072,-1.681744 0,-1.921993 2.43252,-4.44461 2.46256,-2.552647 5.79601,-2.552647 h 8.61894 q 3.33346,0 5.94617,2.642741 2.61271,2.612709 2.61271,6.216447 V 3.5083177 q 0,2.8229278 -2.2223,5.0452326 -2.22231,2.2223047 -5.22542,2.2223047 -3.15327,0 -5.16536,-1.9820555 -1.98206,1.9820555 -5.1053,1.9820555 -3.21333,0 -5.43563,-2.2523358 -2.19228,-2.252336 -2.19228,-5.0152015 v -9.7000603 q 0,-3.1232392 2.22231,-5.3755754 2.25233,-2.252336 5.4056,-2.252336 h 4.92511 q 2.7028,0 2.7028,2.702803 V 3.2080063 q 0,1.0510901 0.72075,1.8018688 0.75078,0.7207475 1.80187,0.7207475 1.02106,0 1.77184,-0.7207475 0.75078,-0.7507787 0.75078,-1.8018688 z m -10.09047,0 V -8.7744212 h -2.28237 q -2.82292,0 -2.82292,2.8229278 v 9.1594997 q 0,1.0510901 0.75078,1.8018688 0.75077,0.7207475 1.77183,0.7207475 1.05109,0 1.80187,-0.7207475 0.78081,-0.7507787 0.78081,-1.8018688 z"
					  inkscape:connector-curvature="0" />
				<path id="path2217"
					  style="text-align:center;text-anchor:middle;fill:#d5ffe6;stroke-width:1.28132892"
					  d="m -372.06607,-9.1648261 v 8.73906364 q 0,1.02105898 -0.78081,1.77183766 -0.75078,0.7507786 -1.80187,0.7507786 h -7.68797 v 6.1563851 q 0,1.0510901 -0.75078,1.8018691 -0.75078,0.720747 -1.77184,0.720747 -1.08112,0 -1.8319,-0.720747 -0.75078,-0.750779 -0.75078,-1.8018691 V 2.0367916 h -7.62791 q -1.02106,0 -1.77184,-0.7207476 -0.75078,-0.75077862 -0.75078,-1.80186875 0,-1.05109015 0.72075,-1.77183765 0.75078,-0.7507787 1.80187,-0.7507787 h 17.8385 v -3.6337687 h -17.77844 q -1.05109,0 -1.80187,-0.7207475 -0.72074,-0.7207475 -0.72074,-1.8018688 v -8.7090329 q 0,-1.05109 0.72074,-1.771837 0.75078,-0.750779 1.80187,-0.750779 h 7.56785 v -6.156385 q 0,-1.021059 0.69072,-1.771838 0.72075,-0.750778 1.92199,-0.750778 1.02106,0 1.74181,0.750778 0.75078,0.720748 0.75078,1.771838 v 6.156385 h 7.74803 q 1.05109,0 1.80187,0.750779 0.78081,0.750778 0.78081,1.771837 0,1.051091 -0.78081,1.8319 -0.75078,0.750779 -1.80187,0.750779 h -17.8385 v 3.603738 h 17.77844 q 1.05109,0 1.80187,0.750778 0.78081,0.750779 0.78081,1.7718379 z"
					  inkscape:connector-curvature="0" />
				<path id="path2219"
					  style="text-align:center;text-anchor:middle;fill:#d5ffe6;stroke-width:1.28132892"
					  d="m -360.53412,-24.330555 v -2.162243 q 0,-1.05109 0.72075,-1.771837 0.75078,-0.750779 1.80187,-0.750779 h 22.88373 v 15.496072 q 0,1.231277 -0.93096,2.042118 l -9.27963,7.9282223 V 8.1931766 q 0,1.0510901 -0.75078,1.8319004 -0.72074,0.750778 -1.77183,0.750778 -1.05109,0 -1.8319,-0.750778 -0.75078,-0.7507791 -0.75078,-1.7718381 V -4.4799672 q 0,-1.4414951 0.90093,-2.2223049 l 9.30966,-7.8681599 v -9.399749 h -15.25582 q -0.54056,2.162242 -2.52262,2.162242 -1.05109,0 -1.80187,-0.720747 -0.72075,-0.750779 -0.72075,-1.801869 z"
					  inkscape:connector-curvature="0" />
				<path id="path2221"
					  style="text-align:center;text-anchor:middle;fill:#d5ffe6;stroke-width:1.28132892"
					  d="m -314.07593,5.7306226 h 11.68212 V -6.6422098 h -15.25583 V -29.075476 h 17.77844 q 1.02106,0 1.77184,0.750778 0.75078,0.750779 0.75078,1.771838 0,1.05109 -0.75078,1.801869 -0.72075,0.720747 -1.77184,0.720747 h -12.67314 v 12.342802 h 10.15053 q 2.04211,0 3.54367,1.501557 1.50156,1.5015573 1.50156,3.5436752 V 5.7306226 q 0,2.0721491 -1.50156,3.5737064 -1.47153,1.471526 -3.54367,1.471526 h -11.68212 q -1.56162,0 -3.33346,-0.750778 l -3.81395,-1.5916512 q -1.53159,-0.6306541 -1.53159,-2.4024918 0,-1.0510901 0.69071,-1.7718376 0.69072,-0.7507787 1.68175,-0.7507787 0.75078,0 1.74181,0.4504672 l 3.33345,1.4114639 q 0.60063,0.3603738 1.23128,0.3603738 z"
					  inkscape:connector-curvature="0" />
				<path id="path2223"
					  style="text-align:center;text-anchor:middle;fill:#d5ffe6;stroke-width:1.28132892"
					  d="M -286.35718,5.6705603 V -6.6422098 q 0,-2.0721491 1.50156,-3.5436752 1.50156,-1.501557 3.60374,-1.501557 V -26.55286 q 0,-1.05109 0.72074,-1.771838 0.72075,-0.750778 1.80187,-0.750778 h 10.27065 q 1.05109,0 1.77184,0.750778 0.75078,0.720748 0.75078,1.771838 v 14.865418 q 2.04212,0 3.54368,1.471526 1.50155,1.4414948 1.50155,3.5737062 V 5.7306226 q 0,2.0721491 -1.50155,3.5737064 -1.50156,1.471526 -3.54368,1.471526 h -15.31588 q -2.13222,0 -3.63377,-1.5616194 -1.47153,-1.5616197 -1.47153,-3.5436753 z m 10.15053,-29.7008043 v 12.342802 h 5.22542 v -12.342802 z m -5.04523,17.3880342 V 5.7306226 H -265.936 V -6.6422098 Z"
					  inkscape:connector-curvature="0" />
			</g>
			<path id="rect4655"
				  d="m -830.25965,149.85862 h 415.02851 c 6.43606,0 11.61742,5.18137 11.61742,11.61742 v 106.66905 c 0,6.43605 -5.18136,11.61741 -11.61742,11.61741 h -415.02851 c -6.4361,0 -11.6174,-5.18136 -11.6174,-11.61741 V 161.47604 c 0,-6.43605 5.1813,-11.61742 11.6174,-11.61742 z"
				  style="opacity:1;fill:#0066ff;fill-opacity:1;stroke:#ffffff;stroke-width:2.16635275;stroke-miterlimit:4;stroke-dasharray:none;stroke-opacity:1"
				  inkscape:connector-curvature="0" />
			<g id="text4679"
			   style="font-style:normal;font-variant:normal;font-weight:normal;font-stretch:normal;font-size:37.4593277px;line-height:1.25;font-family:'OCR A Extended';-inkscape-font-specification:'OCR A Extended';letter-spacing:0px;word-spacing:0px;fill:#ffffff;fill-opacity:1;stroke:none;stroke-width:0.78040266"
			   transform="matrix(1.9047597,0,0,2.2730454,-52.30656,48.908711)"
			   aria-label="GENERATE">
				<path id="path2226"
					  style="font-style:normal;font-variant:normal;font-weight:normal;font-stretch:normal;font-family:Calibri;-inkscape-font-specification:Calibri;text-align:center;text-anchor:middle;fill:#ffffff;stroke-width:0.78040266"
					  d="m -358.44076,64.371683 q 0,0.347523 -0.0366,0.621883 -0.0366,0.25607 -0.10974,0.438976 -0.0732,0.164617 -0.18291,0.237779 -0.10974,0.07316 -0.23778,0.07316 -0.21949,0 -0.73163,-0.347523 -0.51214,-0.347523 -1.3718,-0.768209 -0.85966,-0.420686 -2.06685,-0.768209 -1.18889,-0.347523 -2.83505,-0.347523 -1.95711,0 -3.51181,0.713337 -1.55471,0.713337 -2.63386,1.975394 -1.07915,1.262058 -1.66446,2.999673 -0.56701,1.737615 -0.56701,3.767882 0,2.268045 0.62189,4.023951 0.64017,1.755906 1.7559,2.963091 1.11573,1.207186 2.65215,1.829069 1.55471,0.621883 3.40207,0.621883 1.09744,0 2.21317,-0.256069 1.13403,-0.274361 2.10343,-0.804791 v -6.895589 h -5.4872 q -0.31095,0 -0.47556,-0.310941 -0.14633,-0.310942 -0.14633,-0.969407 0,-0.347523 0.0366,-0.585302 0.0366,-0.256069 0.10975,-0.402395 0.0915,-0.164616 0.2012,-0.237779 0.10974,-0.07316 0.27436,-0.07316 h 7.51747 q 0.2012,0 0.40239,0.07316 0.2012,0.07316 0.36582,0.219488 0.16461,0.146326 0.25607,0.402396 0.0915,0.256069 0.0915,0.585302 v 9.017308 q 0,0.475558 -0.16462,0.823081 -0.16461,0.347523 -0.69504,0.621884 -0.53043,0.256069 -1.3718,0.567011 -0.84138,0.310942 -1.73762,0.53043 -0.89624,0.219488 -1.81078,0.329232 -0.91453,0.109744 -1.81078,0.109744 -2.7436,0 -4.9019,-0.841371 -2.1583,-0.859662 -3.65814,-2.432662 -1.48154,-1.572999 -2.26804,-3.767881 -0.7865,-2.194883 -0.7865,-4.901904 0,-2.816766 0.84137,-5.103102 0.85966,-2.286336 2.39608,-3.895917 1.55471,-1.60958 3.71301,-2.487533 2.17659,-0.896244 4.81045,-0.896244 1.35351,0 2.54241,0.237779 1.18889,0.237779 2.10342,0.567012 0.93283,0.310941 1.55471,0.695046 0.64018,0.365813 0.87796,0.603592 0.23778,0.237779 0.32923,0.548721 0.0915,0.310942 0.0915,0.896244 z"
					  inkscape:connector-curvature="0" />
				<path id="path2228"
					  style="font-style:normal;font-variant:normal;font-weight:normal;font-stretch:normal;font-family:Calibri;-inkscape-font-specification:Calibri;text-align:center;text-anchor:middle;fill:#ffffff;stroke-width:0.78040266"
					  d="m -339.41844,83.522032 q 0,0.329233 -0.0366,0.585302 -0.0366,0.237779 -0.12804,0.402395 -0.0915,0.164617 -0.21949,0.237779 -0.10974,0.07316 -0.25607,0.07316 h -11.35851 q -0.42069,0 -0.80479,-0.27436 -0.36582,-0.292651 -0.36582,-1.005988 V 62.43287 q 0,-0.713337 0.36582,-0.987697 0.3841,-0.292651 0.80479,-0.292651 h 11.23048 q 0.14632,0 0.25607,0.07316 0.12803,0.07316 0.2012,0.237779 0.0732,0.164617 0.10974,0.420686 0.0549,0.237779 0.0549,0.603593 0,0.329232 -0.0549,0.585302 -0.0366,0.237779 -0.10974,0.402395 -0.0732,0.146325 -0.2012,0.219488 -0.10975,0.07316 -0.25607,0.07316 h -9.25509 v 7.426019 h 7.93816 q 0.14632,0 0.25607,0.09145 0.12803,0.07316 0.2012,0.219489 0.0915,0.146325 0.12803,0.402395 0.0366,0.256069 0.0366,0.603592 0,0.329233 -0.0366,0.567012 -0.0366,0.237779 -0.12803,0.384104 -0.0732,0.146326 -0.2012,0.219488 -0.10975,0.05487 -0.25607,0.05487 h -7.93816 v 8.468588 h 9.38312 q 0.14633,0 0.25607,0.07316 0.12804,0.07316 0.21949,0.237778 0.0915,0.146326 0.12804,0.402396 0.0366,0.237779 0.0366,0.603592 z"
					  inkscape:connector-curvature="0" />
				<path id="path2230"
					  style="font-style:normal;font-variant:normal;font-weight:normal;font-stretch:normal;font-family:Calibri;-inkscape-font-specification:Calibri;text-align:center;text-anchor:middle;fill:#ffffff;stroke-width:0.78040266"
					  d="m -316.40876,83.522032 q 0,0.365814 -0.12803,0.621884 -0.10975,0.256069 -0.31094,0.420685 -0.18291,0.164617 -0.42069,0.237779 -0.23778,0.07316 -0.47556,0.07316 h -1.00599 q -0.47555,0 -0.84137,-0.09145 -0.34752,-0.109744 -0.67675,-0.365814 -0.31094,-0.27436 -0.64018,-0.731628 -0.31094,-0.457267 -0.69504,-1.170604 l -7.4626,-13.461945 q -0.5853,-1.04257 -1.1889,-2.176592 -0.5853,-1.152314 -1.09744,-2.231464 h -0.0366 q 0.0366,1.316929 0.0549,2.688731 0.0183,1.371802 0.0183,2.725312 v 14.285027 q 0,0.128035 -0.0732,0.25607 -0.0732,0.109744 -0.25607,0.182907 -0.16462,0.05487 -0.45727,0.09145 -0.27436,0.05487 -0.71333,0.05487 -0.43898,0 -0.73163,-0.05487 -0.27436,-0.03658 -0.43898,-0.09145 -0.16461,-0.07316 -0.23778,-0.182907 -0.0732,-0.128035 -0.0732,-0.25607 v -21.83908 q 0,-0.731628 0.4024,-1.04257 0.40239,-0.310941 0.87795,-0.310941 h 1.49983 q 0.53043,0 0.87796,0.09145 0.36581,0.09145 0.64017,0.310942 0.29265,0.201197 0.54872,0.585302 0.27436,0.365814 0.5853,0.932825 l 5.74328,10.38911 q 0.53043,0.951116 1.02428,1.86565 0.49385,0.896244 0.95111,1.774197 0.45727,0.877953 0.89625,1.737615 0.45727,0.841372 0.89624,1.701034 h 0.0183 q -0.0366,-1.444964 -0.0549,-2.999672 0,-1.573 0,-3.017964 V 61.682952 q 0,-0.128035 0.0732,-0.237779 0.0732,-0.109744 0.23778,-0.182907 0.18291,-0.09145 0.45727,-0.128035 0.29265,-0.03658 0.74992,-0.03658 0.40239,0 0.69504,0.03658 0.29265,0.03658 0.45727,0.128035 0.16462,0.07316 0.23778,0.182907 0.0732,0.109744 0.0732,0.237779 z"
					  inkscape:connector-curvature="0" />
				<path id="path2232"
					  style="font-style:normal;font-variant:normal;font-weight:normal;font-stretch:normal;font-family:Calibri;-inkscape-font-specification:Calibri;text-align:center;text-anchor:middle;fill:#ffffff;stroke-width:0.78040266"
					  d="m -296.91088,83.522032 q 0,0.329233 -0.0366,0.585302 -0.0366,0.237779 -0.12804,0.402395 -0.0915,0.164617 -0.21949,0.237779 -0.10974,0.07316 -0.25607,0.07316 h -11.35851 q -0.42069,0 -0.80479,-0.27436 -0.36582,-0.292651 -0.36582,-1.005988 V 62.43287 q 0,-0.713337 0.36582,-0.987697 0.3841,-0.292651 0.80479,-0.292651 h 11.23048 q 0.14633,0 0.25607,0.07316 0.12803,0.07316 0.2012,0.237779 0.0732,0.164617 0.10974,0.420686 0.0549,0.237779 0.0549,0.603593 0,0.329232 -0.0549,0.585302 -0.0366,0.237779 -0.10974,0.402395 -0.0732,0.146325 -0.2012,0.219488 -0.10974,0.07316 -0.25607,0.07316 h -9.25509 v 7.426019 h 7.93816 q 0.14633,0 0.25607,0.09145 0.12803,0.07316 0.2012,0.219489 0.0915,0.146325 0.12803,0.402395 0.0366,0.256069 0.0366,0.603592 0,0.329233 -0.0366,0.567012 -0.0366,0.237779 -0.12803,0.384104 -0.0732,0.146326 -0.2012,0.219488 -0.10974,0.05487 -0.25607,0.05487 h -7.93816 v 8.468588 h 9.38312 q 0.14633,0 0.25607,0.07316 0.12804,0.07316 0.21949,0.237778 0.0915,0.146326 0.12804,0.402396 0.0366,0.237779 0.0366,0.603592 z"
					  inkscape:connector-curvature="0" />
				<path id="path2234"
					  style="font-style:normal;font-variant:normal;font-weight:normal;font-stretch:normal;font-family:Calibri;-inkscape-font-specification:Calibri;text-align:center;text-anchor:middle;fill:#ffffff;stroke-width:0.78040266"
					  d="m -276.00463,84.345113 q 0,0.146326 -0.0549,0.25607 -0.0549,0.109744 -0.23777,0.182907 -0.18291,0.07316 -0.51214,0.109744 -0.32924,0.03658 -0.87796,0.03658 -0.47555,0 -0.7865,-0.03658 -0.29265,-0.03658 -0.47555,-0.109744 -0.18291,-0.09145 -0.29265,-0.237779 -0.0915,-0.146326 -0.16462,-0.365814 l -2.17659,-5.57866 q -0.38411,-0.951115 -0.80479,-1.737615 -0.4024,-0.80479 -0.96941,-1.371801 -0.56701,-0.585302 -1.33522,-0.896244 -0.76821,-0.329233 -1.84736,-0.329233 h -2.10343 v 10.078169 q 0,0.146326 -0.0915,0.25607 -0.0732,0.109744 -0.25607,0.182907 -0.16462,0.05487 -0.47556,0.09145 -0.29265,0.05487 -0.74992,0.05487 -0.45726,0 -0.76821,-0.05487 -0.29265,-0.03658 -0.47555,-0.09145 -0.18291,-0.07316 -0.25607,-0.182907 -0.0732,-0.109744 -0.0732,-0.25607 V 62.43287 q 0,-0.713337 0.36582,-0.987697 0.3841,-0.292651 0.80479,-0.292651 h 5.02994 q 0.89624,0 1.48154,0.05487 0.60359,0.03658 1.07915,0.09145 1.3718,0.237779 2.41437,0.749918 1.06086,0.51214 1.7742,1.298639 0.71334,0.7865 1.06086,1.810778 0.36581,1.005988 0.36581,2.231464 0,1.188895 -0.32923,2.14001 -0.31094,0.932826 -0.91453,1.664453 -0.6036,0.713337 -1.44497,1.243767 -0.84137,0.53043 -1.88394,0.896243 0.5853,0.25607 1.06086,0.658465 0.47556,0.384105 0.87795,0.932825 0.42069,0.548721 0.7865,1.262058 0.36582,0.713336 0.73163,1.60958 l 2.12172,5.212846 q 0.25607,0.658465 0.32923,0.932825 0.0732,0.25607 0.0732,0.402395 z m -4.73729,-16.626235 q 0,-1.390092 -0.62188,-2.341208 -0.62189,-0.969406 -2.08514,-1.390092 -0.45727,-0.128035 -1.04257,-0.182907 -0.56701,-0.05487 -1.49984,-0.05487 h -2.65215 v 7.97474 h 3.07284 q 1.24376,0 2.14001,-0.292651 0.91453,-0.310942 1.51812,-0.841372 0.6036,-0.54872 0.87796,-1.280348 0.29265,-0.731627 0.29265,-1.59129 z"
					  inkscape:connector-curvature="0" />
				<path id="path2236"
					  style="font-style:normal;font-variant:normal;font-weight:normal;font-stretch:normal;font-family:Calibri;-inkscape-font-specification:Calibri;text-align:center;text-anchor:middle;fill:#ffffff;stroke-width:0.78040266"
					  d="m -253.72657,83.704939 q 0.14632,0.402395 0.14632,0.658465 0.0183,0.237779 -0.12803,0.365814 -0.14633,0.128034 -0.49385,0.164616 -0.32923,0.03658 -0.89624,0.03658 -0.56701,0 -0.91454,-0.03658 -0.32923,-0.01829 -0.51214,-0.07316 -0.16461,-0.07316 -0.25607,-0.182907 -0.0732,-0.109744 -0.14632,-0.27436 l -2.03027,-5.761567 h -9.84039 l -1.93881,5.688404 q -0.0549,0.164616 -0.14633,0.292651 -0.0915,0.109744 -0.27436,0.201198 -0.16461,0.07316 -0.49385,0.109744 -0.31094,0.03658 -0.82308,0.03658 -0.53043,0 -0.87795,-0.05487 -0.32923,-0.03658 -0.47556,-0.164616 -0.12803,-0.128035 -0.12803,-0.365814 0.0183,-0.256069 0.16461,-0.658465 l 7.93816,-21.985406 q 0.0732,-0.201197 0.18291,-0.329232 0.12803,-0.128035 0.34752,-0.201198 0.23778,-0.07316 0.5853,-0.09145 0.36582,-0.03658 0.91454,-0.03658 0.5853,0 0.96941,0.03658 0.3841,0.01829 0.62188,0.09145 0.23778,0.07316 0.36581,0.219489 0.12804,0.128034 0.2012,0.329232 z M -263.91448,64.29852 h -0.0183 l -4.07882,11.797493 h 8.23081 z"
					  inkscape:connector-curvature="0" />
				<path id="path2238"
					  style="font-style:normal;font-variant:normal;font-weight:normal;font-stretch:normal;font-family:Calibri;-inkscape-font-specification:Calibri;text-align:center;text-anchor:middle;fill:#ffffff;stroke-width:0.78040266"
					  d="m -237.88684,62.506033 q 0,0.347523 -0.0366,0.603592 -0.0366,0.25607 -0.12804,0.420686 -0.0732,0.146326 -0.20119,0.219488 -0.10975,0.07316 -0.25607,0.07316 h -6.65781 V 84.34511 q 0,0.146326 -0.0732,0.25607 -0.0732,0.109744 -0.25607,0.182907 -0.1829,0.05487 -0.49384,0.09145 -0.29266,0.05487 -0.74992,0.05487 -0.43898,0 -0.74992,-0.05487 -0.31094,-0.03658 -0.49385,-0.09145 -0.18291,-0.07316 -0.25607,-0.182907 -0.0732,-0.109744 -0.0732,-0.25607 V 63.822962 h -6.65781 q -0.14633,0 -0.27436,-0.07316 -0.10975,-0.07316 -0.18291,-0.219488 -0.0732,-0.164616 -0.12803,-0.420686 -0.0366,-0.256069 -0.0366,-0.603592 0,-0.347524 0.0366,-0.603593 0.0549,-0.27436 0.12803,-0.438977 0.0732,-0.164616 0.18291,-0.237779 0.12803,-0.07316 0.27436,-0.07316 h 16.46162 q 0.14632,0 0.25607,0.07316 0.12803,0.07316 0.20119,0.237779 0.0915,0.164617 0.12804,0.438977 0.0366,0.256069 0.0366,0.603593 z"
					  inkscape:connector-curvature="0" />
				<path id="path2240"
					  style="font-style:normal;font-variant:normal;font-weight:normal;font-stretch:normal;font-family:Calibri;-inkscape-font-specification:Calibri;text-align:center;text-anchor:middle;fill:#ffffff;stroke-width:0.78040266"
					  d="m -221.2606,83.522032 q 0,0.329233 -0.0366,0.585302 -0.0366,0.237779 -0.12803,0.402395 -0.0915,0.164617 -0.21949,0.237779 -0.10975,0.07316 -0.25607,0.07316 h -11.35852 q -0.42068,0 -0.80479,-0.27436 -0.36581,-0.292651 -0.36581,-1.005988 V 62.43287 q 0,-0.713337 0.36581,-0.987697 0.38411,-0.292651 0.80479,-0.292651 h 11.23048 q 0.14633,0 0.25607,0.07316 0.12804,0.07316 0.2012,0.237779 0.0732,0.164617 0.10974,0.420686 0.0549,0.237779 0.0549,0.603593 0,0.329232 -0.0549,0.585302 -0.0366,0.237779 -0.10974,0.402395 -0.0732,0.146325 -0.2012,0.219488 -0.10974,0.07316 -0.25607,0.07316 h -9.25508 v 7.426019 h 7.93815 q 0.14633,0 0.25607,0.09145 0.12804,0.07316 0.2012,0.219489 0.0915,0.146325 0.12804,0.402395 0.0366,0.256069 0.0366,0.603592 0,0.329233 -0.0366,0.567012 -0.0366,0.237779 -0.12804,0.384104 -0.0732,0.146326 -0.2012,0.219488 -0.10974,0.05487 -0.25607,0.05487 h -7.93815 v 8.468588 h 9.38312 q 0.14632,0 0.25607,0.07316 0.12803,0.07316 0.21949,0.237778 0.0914,0.146326 0.12803,0.402396 0.0366,0.237779 0.0366,0.603592 z"
					  inkscape:connector-curvature="0" />
			</g>
		</g>
	</g>
</svg>